<mxfile host="app.diagrams.net" modified="2023-11-09T19:08:12.061Z" agent="Mozilla/5.0 (Windows NT 10.0; Win64; x64) AppleWebKit/537.36 (KHTML, like Gecko) Chrome/119.0.0.0 Safari/537.36 Edg/119.0.0.0" etag="7EW0F372SqX6pLGzTimj" version="22.1.0" type="google" pages="10">
  <diagram id="wWPI-wpBRX_p6wlrM0LI" name="uc1">
    <mxGraphModel dx="1050" dy="629" grid="1" gridSize="10" guides="1" tooltips="1" connect="1" arrows="1" fold="1" page="0" pageScale="1" pageWidth="850" pageHeight="1100" math="0" shadow="0">
      <root>
        <mxCell id="0" />
        <mxCell id="1" style="" parent="0" />
        <mxCell id="tPiwm4dg9IE7yv0B7M14-2" value="&lt;b&gt;sd&lt;/b&gt;&amp;nbsp;RegisterUser" style="shape=umlFrame;whiteSpace=wrap;html=1;pointerEvents=0;width=120;height=20;fontFamily=Sarabun;fontSource=https%3A%2F%2Ffonts.googleapis.com%2Fcss%3Ffamily%3DSarabun;connectable=0;" parent="1" vertex="1">
          <mxGeometry x="320" y="320" width="1000" height="840" as="geometry" />
        </mxCell>
        <mxCell id="tPiwm4dg9IE7yv0B7M14-7" style="rounded=0;orthogonalLoop=1;jettySize=auto;html=1;exitX=1;exitY=0.5;exitDx=0;exitDy=0;entryX=0;entryY=0.5;entryDx=0;entryDy=0;fontFamily=Sarabun;fontSource=https%3A%2F%2Ffonts.googleapis.com%2Fcss%3Ffamily%3DSarabun;fontSize=12;fontColor=default;endArrow=none;endFill=0;" parent="1" source="tPiwm4dg9IE7yv0B7M14-3" target="tPiwm4dg9IE7yv0B7M14-4" edge="1">
          <mxGeometry relative="1" as="geometry" />
        </mxCell>
        <mxCell id="tPiwm4dg9IE7yv0B7M14-3" value="user:User" style="html=1;whiteSpace=wrap;pointerEvents=0;strokeColor=default;align=center;verticalAlign=middle;fontFamily=Sarabun;fontSource=https%3A%2F%2Ffonts.googleapis.com%2Fcss%3Ffamily%3DSarabun;fontSize=12;fontColor=default;fillColor=default;" parent="1" vertex="1">
          <mxGeometry x="480" y="400" width="120" height="40" as="geometry" />
        </mxCell>
        <mxCell id="tPiwm4dg9IE7yv0B7M14-8" style="shape=connector;rounded=0;orthogonalLoop=1;jettySize=auto;html=1;exitX=1;exitY=0.5;exitDx=0;exitDy=0;entryX=0;entryY=0.5;entryDx=0;entryDy=0;labelBackgroundColor=default;strokeColor=default;align=center;verticalAlign=middle;fontFamily=Sarabun;fontSource=https%3A%2F%2Ffonts.googleapis.com%2Fcss%3Ffamily%3DSarabun;fontSize=12;fontColor=default;endArrow=none;endFill=0;" parent="1" source="tPiwm4dg9IE7yv0B7M14-4" target="tPiwm4dg9IE7yv0B7M14-5" edge="1">
          <mxGeometry relative="1" as="geometry" />
        </mxCell>
        <mxCell id="tPiwm4dg9IE7yv0B7M14-4" value=":RegisterController" style="html=1;whiteSpace=wrap;pointerEvents=0;strokeColor=default;align=center;verticalAlign=middle;fontFamily=Sarabun;fontSource=https%3A%2F%2Ffonts.googleapis.com%2Fcss%3Ffamily%3DSarabun;fontSize=12;fontColor=default;fillColor=default;" parent="1" vertex="1">
          <mxGeometry x="720" y="600" width="120" height="40" as="geometry" />
        </mxCell>
        <mxCell id="tPiwm4dg9IE7yv0B7M14-9" style="shape=connector;rounded=0;orthogonalLoop=1;jettySize=auto;html=1;exitX=0.5;exitY=1;exitDx=0;exitDy=0;entryX=1;entryY=0.5;entryDx=0;entryDy=0;labelBackgroundColor=default;strokeColor=default;align=center;verticalAlign=middle;fontFamily=Sarabun;fontSource=https%3A%2F%2Ffonts.googleapis.com%2Fcss%3Ffamily%3DSarabun;fontSize=12;fontColor=default;endArrow=none;endFill=0;" parent="1" source="tPiwm4dg9IE7yv0B7M14-5" target="tPiwm4dg9IE7yv0B7M14-6" edge="1">
          <mxGeometry relative="1" as="geometry" />
        </mxCell>
        <mxCell id="tPiwm4dg9IE7yv0B7M14-5" value=":UserController" style="html=1;whiteSpace=wrap;pointerEvents=0;strokeColor=default;align=center;verticalAlign=middle;fontFamily=Sarabun;fontSource=https%3A%2F%2Ffonts.googleapis.com%2Fcss%3Ffamily%3DSarabun;fontSize=12;fontColor=default;fillColor=default;" parent="1" vertex="1">
          <mxGeometry x="960" y="800" width="120" height="40" as="geometry" />
        </mxCell>
        <mxCell id="tPiwm4dg9IE7yv0B7M14-6" value=":Database" style="html=1;whiteSpace=wrap;pointerEvents=0;strokeColor=default;align=center;verticalAlign=middle;fontFamily=Sarabun;fontSource=https%3A%2F%2Ffonts.googleapis.com%2Fcss%3Ffamily%3DSarabun;fontSize=12;fontColor=default;fillColor=default;" parent="1" vertex="1">
          <mxGeometry x="720" y="1040" width="120" height="40" as="geometry" />
        </mxCell>
        <mxCell id="-0QZgYA8UP_wG_dYEE2F-7" value="" style="html=1;verticalAlign=bottom;endArrow=block;curved=0;rounded=0;anchorPointDirection=1;snapToPoint=1;" parent="1" edge="1">
          <mxGeometry width="80" relative="1" as="geometry">
            <mxPoint x="670" y="490" as="sourcePoint" />
            <mxPoint x="700" y="540" as="targetPoint" />
          </mxGeometry>
        </mxCell>
        <mxCell id="-0QZgYA8UP_wG_dYEE2F-14" value="5:ส่งข้อมูลส่วนตัวที่ผู้ใช้กรอก" style="text;html=1;align=left;verticalAlign=top;resizable=0;points=[];autosize=1;strokeColor=none;fillColor=none;fontFamily=Sarabun;fontSource=https%3A%2F%2Ffonts.googleapis.com%2Fcss%3Ffamily%3DSarabun;" parent="1" vertex="1">
          <mxGeometry x="960" y="690" width="160" height="30" as="geometry" />
        </mxCell>
        <mxCell id="-0QZgYA8UP_wG_dYEE2F-16" value="2:แสดงหน้าฟอร์มลงทะเบียนบัญชีผู้ใช้ระบบ" style="text;html=1;align=left;verticalAlign=top;resizable=0;points=[];autosize=1;strokeColor=none;fillColor=none;fontFamily=Sarabun;fontSource=https%3A%2F%2Ffonts.googleapis.com%2Fcss%3Ffamily%3DSarabun;" parent="1" vertex="1">
          <mxGeometry x="360" y="480" width="230" height="30" as="geometry" />
        </mxCell>
        <mxCell id="-0QZgYA8UP_wG_dYEE2F-22" value="1:กดลงทะเบียนบัญชีผู้ใช้&lt;br&gt;3:กรอกข้อมูล&lt;br&gt;4:กดปุ่ม &quot;Create Account&quot;&lt;br&gt;" style="text;html=1;align=left;verticalAlign=top;resizable=0;points=[];autosize=1;strokeColor=none;fillColor=none;fontFamily=Sarabun;fontSource=https%3A%2F%2Ffonts.googleapis.com%2Fcss%3Ffamily%3DSarabun;" parent="1" vertex="1">
          <mxGeometry x="720" y="480" width="150" height="60" as="geometry" />
        </mxCell>
        <mxCell id="-0QZgYA8UP_wG_dYEE2F-25" value="6:ขอข้อมูลผู้ใช้" style="text;html=1;align=left;verticalAlign=top;resizable=0;points=[];autosize=1;strokeColor=none;fillColor=none;fontFamily=Sarabun;fontSource=https%3A%2F%2Ffonts.googleapis.com%2Fcss%3Ffamily%3DSarabun;" parent="1" vertex="1">
          <mxGeometry x="950" y="980" width="100" height="30" as="geometry" />
        </mxCell>
        <mxCell id="-0QZgYA8UP_wG_dYEE2F-26" value="7:ข้อมูลผู้ใช้" style="text;html=1;align=left;verticalAlign=top;resizable=0;points=[];autosize=1;strokeColor=none;fillColor=none;fontFamily=Sarabun;fontSource=https%3A%2F%2Ffonts.googleapis.com%2Fcss%3Ffamily%3DSarabun;" parent="1" vertex="1">
          <mxGeometry x="810" y="900" width="80" height="30" as="geometry" />
        </mxCell>
        <mxCell id="-0QZgYA8UP_wG_dYEE2F-27" value="8:ตรวจสอบข้อมูลที่ผู้ใช้กรอก" style="text;html=1;align=left;verticalAlign=top;resizable=0;points=[];autosize=1;strokeColor=none;fillColor=none;fontFamily=Sarabun;fontSource=https%3A%2F%2Ffonts.googleapis.com%2Fcss%3Ffamily%3DSarabun;" parent="1" vertex="1">
          <mxGeometry x="1140" y="770" width="160" height="30" as="geometry" />
        </mxCell>
        <mxCell id="-0QZgYA8UP_wG_dYEE2F-30" value="" style="html=1;verticalAlign=bottom;endArrow=block;curved=0;rounded=0;anchorPointDirection=1;snapToPoint=1;" parent="1" edge="1">
          <mxGeometry width="80" relative="1" as="geometry">
            <mxPoint x="920" y="700" as="sourcePoint" />
            <mxPoint x="950" y="750" as="targetPoint" />
          </mxGeometry>
        </mxCell>
        <mxCell id="-0QZgYA8UP_wG_dYEE2F-32" value="" style="html=1;verticalAlign=bottom;endArrow=open;dashed=1;endSize=8;curved=0;rounded=0;" parent="1" edge="1">
          <mxGeometry x="0.0002" relative="1" as="geometry">
            <mxPoint x="650" y="540" as="sourcePoint" />
            <mxPoint x="620" y="490" as="targetPoint" />
            <mxPoint as="offset" />
          </mxGeometry>
        </mxCell>
        <mxCell id="-0QZgYA8UP_wG_dYEE2F-34" value="" style="html=1;verticalAlign=bottom;endArrow=block;curved=0;rounded=0;anchorPointDirection=1;snapToPoint=1;" parent="1" edge="1">
          <mxGeometry width="80" relative="1" as="geometry">
            <mxPoint x="940" y="970" as="sourcePoint" />
            <mxPoint x="900" y="1020" as="targetPoint" />
          </mxGeometry>
        </mxCell>
        <mxCell id="-0QZgYA8UP_wG_dYEE2F-35" value="" style="html=1;verticalAlign=bottom;endArrow=open;dashed=1;endSize=8;curved=0;rounded=0;" parent="1" edge="1">
          <mxGeometry x="0.0002" relative="1" as="geometry">
            <mxPoint x="900" y="950" as="sourcePoint" />
            <mxPoint x="945" y="900" as="targetPoint" />
            <mxPoint as="offset" />
          </mxGeometry>
        </mxCell>
        <mxCell id="-0QZgYA8UP_wG_dYEE2F-37" value="" style="html=1;verticalAlign=bottom;endArrow=none;rounded=0;anchorPointDirection=1;snapToPoint=1;edgeStyle=orthogonalEdgeStyle;endFill=0;" parent="1" edge="1">
          <mxGeometry width="80" relative="1" as="geometry">
            <mxPoint x="1080" y="810" as="sourcePoint" />
            <mxPoint x="1070" y="801" as="targetPoint" />
            <Array as="points">
              <mxPoint x="1100" y="810" />
              <mxPoint x="1100" y="780" />
              <mxPoint x="1070" y="780" />
            </Array>
          </mxGeometry>
        </mxCell>
        <mxCell id="-0QZgYA8UP_wG_dYEE2F-40" value="" style="html=1;verticalAlign=bottom;endArrow=open;curved=0;rounded=0;anchorPointDirection=1;snapToPoint=1;endFill=0;" parent="1" edge="1">
          <mxGeometry width="80" relative="1" as="geometry">
            <mxPoint x="1010" y="890" as="sourcePoint" />
            <mxPoint x="970" y="940" as="targetPoint" />
          </mxGeometry>
        </mxCell>
        <mxCell id="-0QZgYA8UP_wG_dYEE2F-41" value="9:เขียนข้อมูลผู้ใช้" style="text;html=1;align=left;verticalAlign=top;resizable=0;points=[];autosize=1;strokeColor=none;fillColor=none;fontFamily=Sarabun;fontSource=https%3A%2F%2Ffonts.googleapis.com%2Fcss%3Ffamily%3DSarabun;" parent="1" vertex="1">
          <mxGeometry x="1020" y="910" width="110" height="30" as="geometry" />
        </mxCell>
        <mxCell id="dPoTuixMEh7soJmYH3nP-1" value="" style="html=1;verticalAlign=bottom;endArrow=block;curved=0;rounded=0;anchorPointDirection=1;snapToPoint=1;" parent="1" edge="1">
          <mxGeometry width="80" relative="1" as="geometry">
            <mxPoint x="1120" y="780" as="sourcePoint" />
            <mxPoint x="1120" y="810" as="targetPoint" />
          </mxGeometry>
        </mxCell>
      </root>
    </mxGraphModel>
  </diagram>
  <diagram id="fPau6Qf3guddTYAq7LqA" name="uc1-alt1">
    <mxGraphModel dx="1050" dy="629" grid="1" gridSize="10" guides="1" tooltips="1" connect="1" arrows="1" fold="1" page="0" pageScale="1" pageWidth="850" pageHeight="1100" math="0" shadow="0">
      <root>
        <mxCell id="0" />
        <mxCell id="1" parent="0" />
        <mxCell id="Bb7EQyofnAXn9q3JNkSf-25" value="&lt;b&gt;sd&lt;/b&gt;&amp;nbsp;RegisterUser" style="shape=umlFrame;whiteSpace=wrap;html=1;pointerEvents=0;width=120;height=20;fontFamily=Sarabun;fontSource=https%3A%2F%2Ffonts.googleapis.com%2Fcss%3Ffamily%3DSarabun;connectable=0;" vertex="1" parent="1">
          <mxGeometry x="330" y="330" width="1000" height="840" as="geometry" />
        </mxCell>
        <mxCell id="Bb7EQyofnAXn9q3JNkSf-26" style="rounded=0;orthogonalLoop=1;jettySize=auto;html=1;exitX=1;exitY=0.5;exitDx=0;exitDy=0;entryX=0;entryY=0.5;entryDx=0;entryDy=0;fontFamily=Sarabun;fontSource=https%3A%2F%2Ffonts.googleapis.com%2Fcss%3Ffamily%3DSarabun;fontSize=12;fontColor=default;endArrow=none;endFill=0;" edge="1" parent="1" source="Bb7EQyofnAXn9q3JNkSf-27" target="Bb7EQyofnAXn9q3JNkSf-29">
          <mxGeometry relative="1" as="geometry" />
        </mxCell>
        <mxCell id="Bb7EQyofnAXn9q3JNkSf-27" value="user:User" style="html=1;whiteSpace=wrap;pointerEvents=0;strokeColor=default;align=center;verticalAlign=middle;fontFamily=Sarabun;fontSource=https%3A%2F%2Ffonts.googleapis.com%2Fcss%3Ffamily%3DSarabun;fontSize=12;fontColor=default;fillColor=default;" vertex="1" parent="1">
          <mxGeometry x="490" y="410" width="120" height="40" as="geometry" />
        </mxCell>
        <mxCell id="Bb7EQyofnAXn9q3JNkSf-28" style="shape=connector;rounded=0;orthogonalLoop=1;jettySize=auto;html=1;exitX=1;exitY=0.5;exitDx=0;exitDy=0;entryX=0;entryY=0.5;entryDx=0;entryDy=0;labelBackgroundColor=default;strokeColor=default;align=center;verticalAlign=middle;fontFamily=Sarabun;fontSource=https%3A%2F%2Ffonts.googleapis.com%2Fcss%3Ffamily%3DSarabun;fontSize=12;fontColor=default;endArrow=none;endFill=0;" edge="1" parent="1" source="Bb7EQyofnAXn9q3JNkSf-29" target="Bb7EQyofnAXn9q3JNkSf-31">
          <mxGeometry relative="1" as="geometry" />
        </mxCell>
        <mxCell id="Bb7EQyofnAXn9q3JNkSf-29" value=":RegisterController" style="html=1;whiteSpace=wrap;pointerEvents=0;strokeColor=default;align=center;verticalAlign=middle;fontFamily=Sarabun;fontSource=https%3A%2F%2Ffonts.googleapis.com%2Fcss%3Ffamily%3DSarabun;fontSize=12;fontColor=default;fillColor=default;" vertex="1" parent="1">
          <mxGeometry x="730" y="610" width="120" height="40" as="geometry" />
        </mxCell>
        <mxCell id="Bb7EQyofnAXn9q3JNkSf-30" style="shape=connector;rounded=0;orthogonalLoop=1;jettySize=auto;html=1;exitX=0.5;exitY=1;exitDx=0;exitDy=0;entryX=1;entryY=0.5;entryDx=0;entryDy=0;labelBackgroundColor=default;strokeColor=default;align=center;verticalAlign=middle;fontFamily=Sarabun;fontSource=https%3A%2F%2Ffonts.googleapis.com%2Fcss%3Ffamily%3DSarabun;fontSize=12;fontColor=default;endArrow=none;endFill=0;" edge="1" parent="1" source="Bb7EQyofnAXn9q3JNkSf-31" target="Bb7EQyofnAXn9q3JNkSf-32">
          <mxGeometry relative="1" as="geometry" />
        </mxCell>
        <mxCell id="Bb7EQyofnAXn9q3JNkSf-31" value=":UserController" style="html=1;whiteSpace=wrap;pointerEvents=0;strokeColor=default;align=center;verticalAlign=middle;fontFamily=Sarabun;fontSource=https%3A%2F%2Ffonts.googleapis.com%2Fcss%3Ffamily%3DSarabun;fontSize=12;fontColor=default;fillColor=default;" vertex="1" parent="1">
          <mxGeometry x="970" y="810" width="120" height="40" as="geometry" />
        </mxCell>
        <mxCell id="Bb7EQyofnAXn9q3JNkSf-32" value=":Database" style="html=1;whiteSpace=wrap;pointerEvents=0;strokeColor=default;align=center;verticalAlign=middle;fontFamily=Sarabun;fontSource=https%3A%2F%2Ffonts.googleapis.com%2Fcss%3Ffamily%3DSarabun;fontSize=12;fontColor=default;fillColor=default;" vertex="1" parent="1">
          <mxGeometry x="730" y="1050" width="120" height="40" as="geometry" />
        </mxCell>
        <mxCell id="Bb7EQyofnAXn9q3JNkSf-33" value="" style="html=1;verticalAlign=bottom;endArrow=block;curved=0;rounded=0;anchorPointDirection=1;snapToPoint=1;" edge="1" parent="1">
          <mxGeometry width="80" relative="1" as="geometry">
            <mxPoint x="680" y="500" as="sourcePoint" />
            <mxPoint x="710" y="550" as="targetPoint" />
          </mxGeometry>
        </mxCell>
        <mxCell id="Bb7EQyofnAXn9q3JNkSf-34" value="5:ส่งข้อมูลส่วนตัวที่ผู้ใช้กรอก" style="text;html=1;align=left;verticalAlign=top;resizable=0;points=[];autosize=1;strokeColor=none;fillColor=none;fontFamily=Sarabun;fontSource=https%3A%2F%2Ffonts.googleapis.com%2Fcss%3Ffamily%3DSarabun;" vertex="1" parent="1">
          <mxGeometry x="970" y="700" width="160" height="30" as="geometry" />
        </mxCell>
        <mxCell id="Bb7EQyofnAXn9q3JNkSf-35" value="2:แสดงหน้าฟอร์มลงทะเบียนบัญชีผู้ใช้ระบบ&lt;br&gt;10:แจ้งเตือนผู้ใช้ให้ตรวจสอบข้อมูลที่กรอก" style="text;html=1;align=left;verticalAlign=top;resizable=0;points=[];autosize=1;strokeColor=none;fillColor=none;fontFamily=Sarabun;fontSource=https%3A%2F%2Ffonts.googleapis.com%2Fcss%3Ffamily%3DSarabun;" vertex="1" parent="1">
          <mxGeometry x="370" y="490" width="230" height="40" as="geometry" />
        </mxCell>
        <mxCell id="Bb7EQyofnAXn9q3JNkSf-36" value="1:กดลงทะเบียนบัญชีผู้ใช้&lt;br&gt;3:กรอกข้อมูล&lt;br&gt;4:กดปุ่ม &quot;Create Account&quot;&lt;br&gt;" style="text;html=1;align=left;verticalAlign=top;resizable=0;points=[];autosize=1;strokeColor=none;fillColor=none;fontFamily=Sarabun;fontSource=https%3A%2F%2Ffonts.googleapis.com%2Fcss%3Ffamily%3DSarabun;" vertex="1" parent="1">
          <mxGeometry x="730" y="490" width="150" height="60" as="geometry" />
        </mxCell>
        <mxCell id="Bb7EQyofnAXn9q3JNkSf-37" value="6:ขอข้อมูลผู้ใช้" style="text;html=1;align=left;verticalAlign=top;resizable=0;points=[];autosize=1;strokeColor=none;fillColor=none;fontFamily=Sarabun;fontSource=https%3A%2F%2Ffonts.googleapis.com%2Fcss%3Ffamily%3DSarabun;" vertex="1" parent="1">
          <mxGeometry x="1030" y="910" width="100" height="30" as="geometry" />
        </mxCell>
        <mxCell id="Bb7EQyofnAXn9q3JNkSf-38" value="7:ข้อมูลผู้ใช้" style="text;html=1;align=left;verticalAlign=top;resizable=0;points=[];autosize=1;strokeColor=none;fillColor=none;fontFamily=Sarabun;fontSource=https%3A%2F%2Ffonts.googleapis.com%2Fcss%3Ffamily%3DSarabun;" vertex="1" parent="1">
          <mxGeometry x="820" y="910" width="80" height="30" as="geometry" />
        </mxCell>
        <mxCell id="Bb7EQyofnAXn9q3JNkSf-39" value="8:ตรวจสอบข้อมูลที่ผู้ใช้กรอก" style="text;html=1;align=left;verticalAlign=top;resizable=0;points=[];autosize=1;strokeColor=none;fillColor=none;fontFamily=Sarabun;fontSource=https%3A%2F%2Ffonts.googleapis.com%2Fcss%3Ffamily%3DSarabun;" vertex="1" parent="1">
          <mxGeometry x="1150" y="780" width="160" height="30" as="geometry" />
        </mxCell>
        <mxCell id="Bb7EQyofnAXn9q3JNkSf-40" value="" style="html=1;verticalAlign=bottom;endArrow=block;curved=0;rounded=0;anchorPointDirection=1;snapToPoint=1;" edge="1" parent="1">
          <mxGeometry width="80" relative="1" as="geometry">
            <mxPoint x="930" y="710" as="sourcePoint" />
            <mxPoint x="960" y="760" as="targetPoint" />
          </mxGeometry>
        </mxCell>
        <mxCell id="Bb7EQyofnAXn9q3JNkSf-41" value="" style="html=1;verticalAlign=bottom;endArrow=open;dashed=1;endSize=8;curved=0;rounded=0;" edge="1" parent="1">
          <mxGeometry x="0.0002" relative="1" as="geometry">
            <mxPoint x="660" y="550" as="sourcePoint" />
            <mxPoint x="630" y="500" as="targetPoint" />
            <mxPoint as="offset" />
          </mxGeometry>
        </mxCell>
        <mxCell id="Bb7EQyofnAXn9q3JNkSf-42" value="" style="html=1;verticalAlign=bottom;endArrow=block;curved=0;rounded=0;anchorPointDirection=1;snapToPoint=1;" edge="1" parent="1">
          <mxGeometry width="80" relative="1" as="geometry">
            <mxPoint x="1000" y="910" as="sourcePoint" />
            <mxPoint x="960" y="960" as="targetPoint" />
          </mxGeometry>
        </mxCell>
        <mxCell id="Bb7EQyofnAXn9q3JNkSf-43" value="" style="html=1;verticalAlign=bottom;endArrow=open;dashed=1;endSize=8;curved=0;rounded=0;" edge="1" parent="1">
          <mxGeometry x="0.0002" relative="1" as="geometry">
            <mxPoint x="910" y="960" as="sourcePoint" />
            <mxPoint x="955" y="910" as="targetPoint" />
            <mxPoint as="offset" />
          </mxGeometry>
        </mxCell>
        <mxCell id="Bb7EQyofnAXn9q3JNkSf-44" value="" style="html=1;verticalAlign=bottom;endArrow=none;rounded=0;anchorPointDirection=1;snapToPoint=1;edgeStyle=orthogonalEdgeStyle;endFill=0;" edge="1" parent="1">
          <mxGeometry width="80" relative="1" as="geometry">
            <mxPoint x="1090" y="820" as="sourcePoint" />
            <mxPoint x="1080" y="811" as="targetPoint" />
            <Array as="points">
              <mxPoint x="1110" y="820" />
              <mxPoint x="1110" y="790" />
              <mxPoint x="1080" y="790" />
            </Array>
          </mxGeometry>
        </mxCell>
        <mxCell id="Bb7EQyofnAXn9q3JNkSf-47" value="" style="html=1;verticalAlign=bottom;endArrow=block;curved=0;rounded=0;anchorPointDirection=1;snapToPoint=1;" edge="1" parent="1">
          <mxGeometry width="80" relative="1" as="geometry">
            <mxPoint x="1130" y="790" as="sourcePoint" />
            <mxPoint x="1130" y="820" as="targetPoint" />
          </mxGeometry>
        </mxCell>
      </root>
    </mxGraphModel>
  </diagram>
  <diagram id="dQPFH-dymkJlwV1t8669" name="uc2">
    <mxGraphModel dx="1700" dy="1258" grid="1" gridSize="10" guides="1" tooltips="1" connect="1" arrows="1" fold="1" page="0" pageScale="1" pageWidth="850" pageHeight="1100" math="0" shadow="0">
      <root>
        <mxCell id="0" />
        <mxCell id="1" parent="0" />
        <mxCell id="1uYYmJ8PEhBrLyW18MGX-1" value="&lt;b&gt;sd&lt;/b&gt;&amp;nbsp;CreateCourse" style="shape=umlFrame;whiteSpace=wrap;html=1;pointerEvents=0;width=120;height=20;fontFamily=Sarabun;fontSource=https%3A%2F%2Ffonts.googleapis.com%2Fcss%3Ffamily%3DSarabun;connectable=0;" parent="1" vertex="1">
          <mxGeometry x="400" y="320" width="680" height="600" as="geometry" />
        </mxCell>
        <mxCell id="1uYYmJ8PEhBrLyW18MGX-2" style="rounded=0;orthogonalLoop=1;jettySize=auto;html=1;exitX=1;exitY=0.5;exitDx=0;exitDy=0;entryX=0;entryY=0.5;entryDx=0;entryDy=0;fontFamily=Sarabun;fontSource=https%3A%2F%2Ffonts.googleapis.com%2Fcss%3Ffamily%3DSarabun;fontSize=12;fontColor=default;endArrow=none;endFill=0;" parent="1" source="1uYYmJ8PEhBrLyW18MGX-3" edge="1">
          <mxGeometry relative="1" as="geometry">
            <mxPoint x="720" y="620" as="targetPoint" />
          </mxGeometry>
        </mxCell>
        <mxCell id="1uYYmJ8PEhBrLyW18MGX-3" value="user:User" style="html=1;whiteSpace=wrap;pointerEvents=0;strokeColor=default;align=center;verticalAlign=middle;fontFamily=Sarabun;fontSource=https%3A%2F%2Ffonts.googleapis.com%2Fcss%3Ffamily%3DSarabun;fontSize=12;fontColor=default;fillColor=default;" parent="1" vertex="1">
          <mxGeometry x="480" y="400" width="120" height="40" as="geometry" />
        </mxCell>
        <mxCell id="1uYYmJ8PEhBrLyW18MGX-6" style="shape=connector;rounded=0;orthogonalLoop=1;jettySize=auto;html=1;exitX=0.5;exitY=1;exitDx=0;exitDy=0;entryX=1;entryY=0.5;entryDx=0;entryDy=0;labelBackgroundColor=default;strokeColor=default;align=center;verticalAlign=middle;fontFamily=Sarabun;fontSource=https%3A%2F%2Ffonts.googleapis.com%2Fcss%3Ffamily%3DSarabun;fontSize=12;fontColor=default;endArrow=none;endFill=0;" parent="1" source="1uYYmJ8PEhBrLyW18MGX-7" target="1uYYmJ8PEhBrLyW18MGX-8" edge="1">
          <mxGeometry relative="1" as="geometry" />
        </mxCell>
        <mxCell id="1uYYmJ8PEhBrLyW18MGX-7" value=":WebServer" style="html=1;whiteSpace=wrap;pointerEvents=0;strokeColor=default;align=center;verticalAlign=middle;fontFamily=Sarabun;fontSource=https%3A%2F%2Ffonts.googleapis.com%2Fcss%3Ffamily%3DSarabun;fontSize=12;fontColor=default;fillColor=default;" parent="1" vertex="1">
          <mxGeometry x="720" y="600" width="120" height="40" as="geometry" />
        </mxCell>
        <mxCell id="1uYYmJ8PEhBrLyW18MGX-8" value=":Database" style="html=1;whiteSpace=wrap;pointerEvents=0;strokeColor=default;align=center;verticalAlign=middle;fontFamily=Sarabun;fontSource=https%3A%2F%2Ffonts.googleapis.com%2Fcss%3Ffamily%3DSarabun;fontSize=12;fontColor=default;fillColor=default;" parent="1" vertex="1">
          <mxGeometry x="480" y="840" width="120" height="40" as="geometry" />
        </mxCell>
        <mxCell id="1uYYmJ8PEhBrLyW18MGX-9" value="" style="html=1;verticalAlign=bottom;endArrow=block;curved=0;rounded=0;anchorPointDirection=1;snapToPoint=1;" parent="1" edge="1">
          <mxGeometry width="80" relative="1" as="geometry">
            <mxPoint x="670" y="490" as="sourcePoint" />
            <mxPoint x="700" y="540" as="targetPoint" />
          </mxGeometry>
        </mxCell>
        <mxCell id="1uYYmJ8PEhBrLyW18MGX-11" value="4:แสดงหน้าสร้างคอร์ส" style="text;html=1;align=left;verticalAlign=top;resizable=0;points=[];autosize=1;strokeColor=none;fillColor=none;fontFamily=Sarabun;fontSource=https%3A%2F%2Ffonts.googleapis.com%2Fcss%3Ffamily%3DSarabun;" parent="1" vertex="1">
          <mxGeometry x="440" y="480" width="130" height="30" as="geometry" />
        </mxCell>
        <mxCell id="1uYYmJ8PEhBrLyW18MGX-13" value="1:กดสร้างคอร์ส&lt;br&gt;5:กรอกข้อมูลของคอร์ส&lt;br&gt;6:กดปุ่ม &quot;Create&quot;" style="text;html=1;align=left;verticalAlign=top;resizable=0;points=[];autosize=1;strokeColor=none;fillColor=none;fontFamily=Sarabun;fontSource=https%3A%2F%2Ffonts.googleapis.com%2Fcss%3Ffamily%3DSarabun;" parent="1" vertex="1">
          <mxGeometry x="720" y="475" width="130" height="60" as="geometry" />
        </mxCell>
        <mxCell id="1uYYmJ8PEhBrLyW18MGX-14" value="2:ขอข้อมูลคอร์สและตารางเวลา" style="text;html=1;align=left;verticalAlign=top;resizable=0;points=[];autosize=1;strokeColor=none;fillColor=none;fontFamily=Sarabun;fontSource=https%3A%2F%2Ffonts.googleapis.com%2Fcss%3Ffamily%3DSarabun;" parent="1" vertex="1">
          <mxGeometry x="710" y="780" width="180" height="30" as="geometry" />
        </mxCell>
        <mxCell id="1uYYmJ8PEhBrLyW18MGX-15" value="3:ข้อมูลคอร์สและตารางเวลา" style="text;html=1;align=left;verticalAlign=top;resizable=0;points=[];autosize=1;strokeColor=none;fillColor=none;fontFamily=Sarabun;fontSource=https%3A%2F%2Ffonts.googleapis.com%2Fcss%3Ffamily%3DSarabun;" parent="1" vertex="1">
          <mxGeometry x="440" y="700" width="160" height="30" as="geometry" />
        </mxCell>
        <mxCell id="1uYYmJ8PEhBrLyW18MGX-16" value="7:ตรวจสอบข้อมูลที่ผู้ใช้กรอก" style="text;html=1;align=left;verticalAlign=top;resizable=0;points=[];autosize=1;strokeColor=none;fillColor=none;fontFamily=Sarabun;fontSource=https%3A%2F%2Ffonts.googleapis.com%2Fcss%3Ffamily%3DSarabun;" parent="1" vertex="1">
          <mxGeometry x="900" y="580" width="160" height="30" as="geometry" />
        </mxCell>
        <mxCell id="1uYYmJ8PEhBrLyW18MGX-19" value="" style="html=1;verticalAlign=bottom;endArrow=open;dashed=1;endSize=8;curved=0;rounded=0;" parent="1" edge="1">
          <mxGeometry x="0.0002" relative="1" as="geometry">
            <mxPoint x="650" y="540" as="sourcePoint" />
            <mxPoint x="620" y="490" as="targetPoint" />
            <mxPoint as="offset" />
          </mxGeometry>
        </mxCell>
        <mxCell id="1uYYmJ8PEhBrLyW18MGX-21" value="" style="html=1;verticalAlign=bottom;endArrow=block;curved=0;rounded=0;anchorPointDirection=1;snapToPoint=1;" parent="1" edge="1">
          <mxGeometry width="80" relative="1" as="geometry">
            <mxPoint x="700" y="770" as="sourcePoint" />
            <mxPoint x="660" y="820" as="targetPoint" />
          </mxGeometry>
        </mxCell>
        <mxCell id="1uYYmJ8PEhBrLyW18MGX-22" value="" style="html=1;verticalAlign=bottom;endArrow=open;dashed=1;endSize=8;curved=0;rounded=0;" parent="1" edge="1">
          <mxGeometry x="0.0002" relative="1" as="geometry">
            <mxPoint x="660" y="750" as="sourcePoint" />
            <mxPoint x="705" y="700" as="targetPoint" />
            <mxPoint as="offset" />
          </mxGeometry>
        </mxCell>
        <mxCell id="1uYYmJ8PEhBrLyW18MGX-23" value="" style="html=1;verticalAlign=bottom;endArrow=none;rounded=0;anchorPointDirection=1;snapToPoint=1;edgeStyle=orthogonalEdgeStyle;endFill=0;" parent="1" edge="1">
          <mxGeometry width="80" relative="1" as="geometry">
            <mxPoint x="840" y="610" as="sourcePoint" />
            <mxPoint x="830" y="601" as="targetPoint" />
            <Array as="points">
              <mxPoint x="860" y="610" />
              <mxPoint x="860" y="580" />
              <mxPoint x="830" y="580" />
            </Array>
          </mxGeometry>
        </mxCell>
        <mxCell id="1uYYmJ8PEhBrLyW18MGX-25" value="" style="html=1;verticalAlign=bottom;endArrow=open;curved=0;rounded=0;anchorPointDirection=1;snapToPoint=1;endFill=0;" parent="1" edge="1">
          <mxGeometry width="80" relative="1" as="geometry">
            <mxPoint x="770" y="690" as="sourcePoint" />
            <mxPoint x="730" y="740" as="targetPoint" />
          </mxGeometry>
        </mxCell>
        <mxCell id="1uYYmJ8PEhBrLyW18MGX-26" value="8:เขียนข้อมูลของคอร์ส" style="text;html=1;align=left;verticalAlign=top;resizable=0;points=[];autosize=1;strokeColor=none;fillColor=none;fontFamily=Sarabun;fontSource=https%3A%2F%2Ffonts.googleapis.com%2Fcss%3Ffamily%3DSarabun;" parent="1" vertex="1">
          <mxGeometry x="780" y="710" width="130" height="30" as="geometry" />
        </mxCell>
        <mxCell id="Fk5dD8T_qm08vvRCcJQW-2" value="" style="html=1;verticalAlign=bottom;endArrow=block;curved=0;rounded=0;anchorPointDirection=1;snapToPoint=1;" parent="1" edge="1">
          <mxGeometry width="80" relative="1" as="geometry">
            <mxPoint x="880" y="580" as="sourcePoint" />
            <mxPoint x="880" y="610" as="targetPoint" />
          </mxGeometry>
        </mxCell>
      </root>
    </mxGraphModel>
  </diagram>
  <diagram id="M_FFTY51XMhcjXkDn5El" name="uc2-alt">
    <mxGraphModel dx="1000" dy="599" grid="1" gridSize="10" guides="1" tooltips="1" connect="1" arrows="1" fold="1" page="0" pageScale="1" pageWidth="850" pageHeight="1100" math="0" shadow="0">
      <root>
        <mxCell id="0" />
        <mxCell id="1" parent="0" />
        <mxCell id="3gJgbOA1MeaQJyzbmePH-1" value="&lt;b&gt;sd&lt;/b&gt;&amp;nbsp;CreateCourse" style="shape=umlFrame;whiteSpace=wrap;html=1;pointerEvents=0;width=120;height=20;fontFamily=Sarabun;fontSource=https%3A%2F%2Ffonts.googleapis.com%2Fcss%3Ffamily%3DSarabun;connectable=0;" parent="1" vertex="1">
          <mxGeometry x="360" y="320" width="720" height="600" as="geometry" />
        </mxCell>
        <mxCell id="3gJgbOA1MeaQJyzbmePH-2" style="rounded=0;orthogonalLoop=1;jettySize=auto;html=1;exitX=1;exitY=0.5;exitDx=0;exitDy=0;entryX=0;entryY=0.5;entryDx=0;entryDy=0;fontFamily=Sarabun;fontSource=https%3A%2F%2Ffonts.googleapis.com%2Fcss%3Ffamily%3DSarabun;fontSize=12;fontColor=default;endArrow=none;endFill=0;" parent="1" source="3gJgbOA1MeaQJyzbmePH-3" edge="1">
          <mxGeometry relative="1" as="geometry">
            <mxPoint x="720" y="620" as="targetPoint" />
          </mxGeometry>
        </mxCell>
        <mxCell id="3gJgbOA1MeaQJyzbmePH-3" value="user:User" style="html=1;whiteSpace=wrap;pointerEvents=0;strokeColor=default;align=center;verticalAlign=middle;fontFamily=Sarabun;fontSource=https%3A%2F%2Ffonts.googleapis.com%2Fcss%3Ffamily%3DSarabun;fontSize=12;fontColor=default;fillColor=default;" parent="1" vertex="1">
          <mxGeometry x="480" y="400" width="120" height="40" as="geometry" />
        </mxCell>
        <mxCell id="3gJgbOA1MeaQJyzbmePH-4" style="shape=connector;rounded=0;orthogonalLoop=1;jettySize=auto;html=1;exitX=0.5;exitY=1;exitDx=0;exitDy=0;entryX=1;entryY=0.5;entryDx=0;entryDy=0;labelBackgroundColor=default;strokeColor=default;align=center;verticalAlign=middle;fontFamily=Sarabun;fontSource=https%3A%2F%2Ffonts.googleapis.com%2Fcss%3Ffamily%3DSarabun;fontSize=12;fontColor=default;endArrow=none;endFill=0;" parent="1" source="3gJgbOA1MeaQJyzbmePH-5" target="3gJgbOA1MeaQJyzbmePH-6" edge="1">
          <mxGeometry relative="1" as="geometry" />
        </mxCell>
        <mxCell id="3gJgbOA1MeaQJyzbmePH-5" value=":WebServer" style="html=1;whiteSpace=wrap;pointerEvents=0;strokeColor=default;align=center;verticalAlign=middle;fontFamily=Sarabun;fontSource=https%3A%2F%2Ffonts.googleapis.com%2Fcss%3Ffamily%3DSarabun;fontSize=12;fontColor=default;fillColor=default;" parent="1" vertex="1">
          <mxGeometry x="720" y="600" width="120" height="40" as="geometry" />
        </mxCell>
        <mxCell id="3gJgbOA1MeaQJyzbmePH-6" value=":Database" style="html=1;whiteSpace=wrap;pointerEvents=0;strokeColor=default;align=center;verticalAlign=middle;fontFamily=Sarabun;fontSource=https%3A%2F%2Ffonts.googleapis.com%2Fcss%3Ffamily%3DSarabun;fontSize=12;fontColor=default;fillColor=default;" parent="1" vertex="1">
          <mxGeometry x="480" y="840" width="120" height="40" as="geometry" />
        </mxCell>
        <mxCell id="3gJgbOA1MeaQJyzbmePH-7" value="" style="html=1;verticalAlign=bottom;endArrow=block;curved=0;rounded=0;anchorPointDirection=1;snapToPoint=1;" parent="1" edge="1">
          <mxGeometry width="80" relative="1" as="geometry">
            <mxPoint x="670" y="490" as="sourcePoint" />
            <mxPoint x="700" y="540" as="targetPoint" />
          </mxGeometry>
        </mxCell>
        <mxCell id="3gJgbOA1MeaQJyzbmePH-8" value="4:แสดงหน้าสร้างคอร์ส&lt;br&gt;9:แจ้งเตือนผู้ใช้ให้ตรวจสอบข้อมูลที่กรอก" style="text;html=1;align=left;verticalAlign=top;resizable=0;points=[];autosize=1;strokeColor=none;fillColor=none;fontFamily=Sarabun;fontSource=https%3A%2F%2Ffonts.googleapis.com%2Fcss%3Ffamily%3DSarabun;" parent="1" vertex="1">
          <mxGeometry x="410" y="485" width="220" height="40" as="geometry" />
        </mxCell>
        <mxCell id="3gJgbOA1MeaQJyzbmePH-9" value="1:กดสร้างคอร์ส&lt;br&gt;5:กรอกข้อมูลของคอร์ส&lt;br&gt;6:กดปุ่ม &quot;Create&quot;" style="text;html=1;align=left;verticalAlign=top;resizable=0;points=[];autosize=1;strokeColor=none;fillColor=none;fontFamily=Sarabun;fontSource=https%3A%2F%2Ffonts.googleapis.com%2Fcss%3Ffamily%3DSarabun;" parent="1" vertex="1">
          <mxGeometry x="720" y="475" width="130" height="60" as="geometry" />
        </mxCell>
        <mxCell id="3gJgbOA1MeaQJyzbmePH-10" value="2:ขอข้อมูลคอร์สและตารางเวลา" style="text;html=1;align=left;verticalAlign=top;resizable=0;points=[];autosize=1;strokeColor=none;fillColor=none;fontFamily=Sarabun;fontSource=https%3A%2F%2Ffonts.googleapis.com%2Fcss%3Ffamily%3DSarabun;" parent="1" vertex="1">
          <mxGeometry x="780" y="700" width="180" height="30" as="geometry" />
        </mxCell>
        <mxCell id="3gJgbOA1MeaQJyzbmePH-11" value="3:ข้อมูลคอร์สและตารางเวลา" style="text;html=1;align=left;verticalAlign=top;resizable=0;points=[];autosize=1;strokeColor=none;fillColor=none;fontFamily=Sarabun;fontSource=https%3A%2F%2Ffonts.googleapis.com%2Fcss%3Ffamily%3DSarabun;" parent="1" vertex="1">
          <mxGeometry x="440" y="700" width="160" height="30" as="geometry" />
        </mxCell>
        <mxCell id="3gJgbOA1MeaQJyzbmePH-12" value="7:ตรวจสอบข้อมูลที่ผู้ใช้กรอก" style="text;html=1;align=left;verticalAlign=top;resizable=0;points=[];autosize=1;strokeColor=none;fillColor=none;fontFamily=Sarabun;fontSource=https%3A%2F%2Ffonts.googleapis.com%2Fcss%3Ffamily%3DSarabun;" parent="1" vertex="1">
          <mxGeometry x="900" y="580" width="160" height="30" as="geometry" />
        </mxCell>
        <mxCell id="3gJgbOA1MeaQJyzbmePH-13" value="" style="html=1;verticalAlign=bottom;endArrow=open;dashed=1;endSize=8;curved=0;rounded=0;" parent="1" edge="1">
          <mxGeometry x="0.0002" relative="1" as="geometry">
            <mxPoint x="650" y="540" as="sourcePoint" />
            <mxPoint x="620" y="490" as="targetPoint" />
            <mxPoint as="offset" />
          </mxGeometry>
        </mxCell>
        <mxCell id="3gJgbOA1MeaQJyzbmePH-14" value="" style="html=1;verticalAlign=bottom;endArrow=block;curved=0;rounded=0;anchorPointDirection=1;snapToPoint=1;" parent="1" edge="1">
          <mxGeometry width="80" relative="1" as="geometry">
            <mxPoint x="760" y="700" as="sourcePoint" />
            <mxPoint x="720" y="750" as="targetPoint" />
          </mxGeometry>
        </mxCell>
        <mxCell id="3gJgbOA1MeaQJyzbmePH-15" value="" style="html=1;verticalAlign=bottom;endArrow=open;dashed=1;endSize=8;curved=0;rounded=0;" parent="1" edge="1">
          <mxGeometry x="0.0002" relative="1" as="geometry">
            <mxPoint x="660" y="750" as="sourcePoint" />
            <mxPoint x="705" y="700" as="targetPoint" />
            <mxPoint as="offset" />
          </mxGeometry>
        </mxCell>
        <mxCell id="3gJgbOA1MeaQJyzbmePH-16" value="" style="html=1;verticalAlign=bottom;endArrow=none;rounded=0;anchorPointDirection=1;snapToPoint=1;edgeStyle=orthogonalEdgeStyle;endFill=0;" parent="1" edge="1">
          <mxGeometry width="80" relative="1" as="geometry">
            <mxPoint x="840" y="610" as="sourcePoint" />
            <mxPoint x="830" y="601" as="targetPoint" />
            <Array as="points">
              <mxPoint x="860" y="610" />
              <mxPoint x="860" y="580" />
              <mxPoint x="830" y="580" />
            </Array>
          </mxGeometry>
        </mxCell>
        <mxCell id="3gJgbOA1MeaQJyzbmePH-19" value="" style="html=1;verticalAlign=bottom;endArrow=block;curved=0;rounded=0;anchorPointDirection=1;snapToPoint=1;" parent="1" edge="1">
          <mxGeometry width="80" relative="1" as="geometry">
            <mxPoint x="880" y="580" as="sourcePoint" />
            <mxPoint x="880" y="610" as="targetPoint" />
          </mxGeometry>
        </mxCell>
      </root>
    </mxGraphModel>
  </diagram>
  <diagram id="9kbwfXfzJENP2O4-EY9W" name="uc3">
    <mxGraphModel dx="1050" dy="629" grid="1" gridSize="10" guides="1" tooltips="1" connect="1" arrows="1" fold="1" page="0" pageScale="1" pageWidth="850" pageHeight="1100" math="0" shadow="0">
      <root>
        <mxCell id="0" />
        <mxCell id="1" parent="0" />
        <mxCell id="GcbTm2GLN2QnevBBtUuV-1" value="&lt;b&gt;sd&lt;/b&gt;&amp;nbsp;EnrollCourse" style="shape=umlFrame;whiteSpace=wrap;html=1;pointerEvents=0;width=120;height=20;fontFamily=Sarabun;fontSource=https%3A%2F%2Ffonts.googleapis.com%2Fcss%3Ffamily%3DSarabun;connectable=0;" parent="1" vertex="1">
          <mxGeometry x="360" y="320" width="600" height="600" as="geometry" />
        </mxCell>
        <mxCell id="GcbTm2GLN2QnevBBtUuV-2" style="rounded=0;orthogonalLoop=1;jettySize=auto;html=1;exitX=1;exitY=0.5;exitDx=0;exitDy=0;entryX=0;entryY=0.5;entryDx=0;entryDy=0;fontFamily=Sarabun;fontSource=https%3A%2F%2Ffonts.googleapis.com%2Fcss%3Ffamily%3DSarabun;fontSize=12;fontColor=default;endArrow=none;endFill=0;" parent="1" source="GcbTm2GLN2QnevBBtUuV-3" edge="1">
          <mxGeometry relative="1" as="geometry">
            <mxPoint x="720" y="620" as="targetPoint" />
          </mxGeometry>
        </mxCell>
        <mxCell id="GcbTm2GLN2QnevBBtUuV-3" value="user:User" style="html=1;whiteSpace=wrap;pointerEvents=0;strokeColor=default;align=center;verticalAlign=middle;fontFamily=Sarabun;fontSource=https%3A%2F%2Ffonts.googleapis.com%2Fcss%3Ffamily%3DSarabun;fontSize=12;fontColor=default;fillColor=default;" parent="1" vertex="1">
          <mxGeometry x="480" y="400" width="120" height="40" as="geometry" />
        </mxCell>
        <mxCell id="GcbTm2GLN2QnevBBtUuV-6" style="shape=connector;rounded=0;orthogonalLoop=1;jettySize=auto;html=1;exitX=0.5;exitY=1;exitDx=0;exitDy=0;entryX=1;entryY=0.5;entryDx=0;entryDy=0;labelBackgroundColor=default;strokeColor=default;align=center;verticalAlign=middle;fontFamily=Sarabun;fontSource=https%3A%2F%2Ffonts.googleapis.com%2Fcss%3Ffamily%3DSarabun;fontSize=12;fontColor=default;endArrow=none;endFill=0;" parent="1" source="GcbTm2GLN2QnevBBtUuV-7" target="GcbTm2GLN2QnevBBtUuV-8" edge="1">
          <mxGeometry relative="1" as="geometry" />
        </mxCell>
        <mxCell id="GcbTm2GLN2QnevBBtUuV-7" value=":WebServer" style="html=1;whiteSpace=wrap;pointerEvents=0;strokeColor=default;align=center;verticalAlign=middle;fontFamily=Sarabun;fontSource=https%3A%2F%2Ffonts.googleapis.com%2Fcss%3Ffamily%3DSarabun;fontSize=12;fontColor=default;fillColor=default;" parent="1" vertex="1">
          <mxGeometry x="720" y="600" width="120" height="40" as="geometry" />
        </mxCell>
        <mxCell id="GcbTm2GLN2QnevBBtUuV-8" value=":Database" style="html=1;whiteSpace=wrap;pointerEvents=0;strokeColor=default;align=center;verticalAlign=middle;fontFamily=Sarabun;fontSource=https%3A%2F%2Ffonts.googleapis.com%2Fcss%3Ffamily%3DSarabun;fontSize=12;fontColor=default;fillColor=default;" parent="1" vertex="1">
          <mxGeometry x="480" y="840" width="120" height="40" as="geometry" />
        </mxCell>
        <mxCell id="GcbTm2GLN2QnevBBtUuV-11" value="4:แสดงหน้าสมัครคอร์ส&lt;br&gt;7:แสดงหน้ายืนยันรายละเอียดคอร์ส" style="text;html=1;align=left;verticalAlign=top;resizable=0;points=[];autosize=1;strokeColor=none;fillColor=none;fontFamily=Sarabun;fontSource=https%3A%2F%2Ffonts.googleapis.com%2Fcss%3Ffamily%3DSarabun;" parent="1" vertex="1">
          <mxGeometry x="400" y="480" width="190" height="40" as="geometry" />
        </mxCell>
        <mxCell id="GcbTm2GLN2QnevBBtUuV-13" value="1:กดปุ่ม &quot;ENROLL COURSE&quot;&lt;br&gt;5:เลือกคอร์ส&lt;br&gt;6:กดปุ่ม &quot;View&quot;&lt;br&gt;8:กดปุ่ม &quot;Confirm&quot;" style="text;html=1;align=left;verticalAlign=top;resizable=0;points=[];autosize=1;strokeColor=none;fillColor=none;fontFamily=Sarabun;fontSource=https%3A%2F%2Ffonts.googleapis.com%2Fcss%3Ffamily%3DSarabun;" parent="1" vertex="1">
          <mxGeometry x="720" y="480" width="160" height="70" as="geometry" />
        </mxCell>
        <mxCell id="GcbTm2GLN2QnevBBtUuV-14" value="2:ขอข้อมูลคอร์สและตารางเวลา" style="text;html=1;align=left;verticalAlign=top;resizable=0;points=[];autosize=1;strokeColor=none;fillColor=none;fontFamily=Sarabun;fontSource=https%3A%2F%2Ffonts.googleapis.com%2Fcss%3Ffamily%3DSarabun;" parent="1" vertex="1">
          <mxGeometry x="760" y="720" width="180" height="30" as="geometry" />
        </mxCell>
        <mxCell id="GcbTm2GLN2QnevBBtUuV-15" value="3:ข้อมูลคอร์สและตารางเวลา" style="text;html=1;align=left;verticalAlign=top;resizable=0;points=[];autosize=1;strokeColor=none;fillColor=none;fontFamily=Sarabun;fontSource=https%3A%2F%2Ffonts.googleapis.com%2Fcss%3Ffamily%3DSarabun;" parent="1" vertex="1">
          <mxGeometry x="480" y="710" width="160" height="30" as="geometry" />
        </mxCell>
        <mxCell id="GcbTm2GLN2QnevBBtUuV-17" value="" style="html=1;verticalAlign=bottom;endArrow=block;curved=0;rounded=0;anchorPointDirection=1;snapToPoint=1;" parent="1" edge="1">
          <mxGeometry width="80" relative="1" as="geometry">
            <mxPoint x="670" y="500" as="sourcePoint" />
            <mxPoint x="700" y="550" as="targetPoint" />
          </mxGeometry>
        </mxCell>
        <mxCell id="GcbTm2GLN2QnevBBtUuV-19" value="" style="html=1;verticalAlign=bottom;endArrow=open;dashed=1;endSize=8;curved=0;rounded=0;" parent="1" edge="1">
          <mxGeometry x="0.0002" relative="1" as="geometry">
            <mxPoint x="650" y="550" as="sourcePoint" />
            <mxPoint x="620" y="500" as="targetPoint" />
            <mxPoint as="offset" />
          </mxGeometry>
        </mxCell>
        <mxCell id="GcbTm2GLN2QnevBBtUuV-20" value="" style="html=1;verticalAlign=bottom;endArrow=block;curved=0;rounded=0;anchorPointDirection=1;snapToPoint=1;" parent="1" edge="1">
          <mxGeometry width="80" relative="1" as="geometry">
            <mxPoint x="760" y="700" as="sourcePoint" />
            <mxPoint x="720" y="750" as="targetPoint" />
          </mxGeometry>
        </mxCell>
        <mxCell id="GcbTm2GLN2QnevBBtUuV-21" value="" style="html=1;verticalAlign=bottom;endArrow=open;dashed=1;endSize=8;curved=0;rounded=0;" parent="1" edge="1">
          <mxGeometry x="0.0002" relative="1" as="geometry">
            <mxPoint x="660" y="750" as="sourcePoint" />
            <mxPoint x="705" y="700" as="targetPoint" />
            <mxPoint as="offset" />
          </mxGeometry>
        </mxCell>
      </root>
    </mxGraphModel>
  </diagram>
  <diagram id="GCYVppV8nrI6BKzfAS8W" name="uc4">
    <mxGraphModel dx="2250" dy="629" grid="1" gridSize="10" guides="1" tooltips="1" connect="1" arrows="1" fold="1" page="0" pageScale="1" pageWidth="850" pageHeight="1100" math="0" shadow="0">
      <root>
        <mxCell id="0" />
        <mxCell id="1" parent="0" />
        <mxCell id="AJx8Ky_he362x2AyVu-4-1" value="c:Customer" style="rounded=1;whiteSpace=wrap;html=1;fillColor=#f0a30a;fontColor=#000000;strokeColor=#BD7000;" parent="1" vertex="1">
          <mxGeometry x="-210" y="130" width="120" height="60" as="geometry" />
        </mxCell>
        <mxCell id="AJx8Ky_he362x2AyVu-4-2" style="edgeStyle=orthogonalEdgeStyle;rounded=0;orthogonalLoop=1;jettySize=auto;html=1;exitX=0.5;exitY=1;exitDx=0;exitDy=0;entryX=0.5;entryY=0;entryDx=0;entryDy=0;" parent="1" source="AJx8Ky_he362x2AyVu-4-4" target="AJx8Ky_he362x2AyVu-4-5" edge="1">
          <mxGeometry relative="1" as="geometry" />
        </mxCell>
        <mxCell id="AJx8Ky_he362x2AyVu-4-3" value="5.ส่งข้อมูลสลิป" style="edgeLabel;html=1;align=center;verticalAlign=middle;resizable=0;points=[];" parent="AJx8Ky_he362x2AyVu-4-2" connectable="0" vertex="1">
          <mxGeometry x="-0.2643" y="-4" relative="1" as="geometry">
            <mxPoint x="4" y="12" as="offset" />
          </mxGeometry>
        </mxCell>
        <mxCell id="AJx8Ky_he362x2AyVu-4-4" value="pv: paymentView" style="rounded=1;whiteSpace=wrap;html=1;fillColor=#f0a30a;strokeColor=#BD7000;fontColor=#000000;" parent="1" vertex="1">
          <mxGeometry x="-410" y="250" width="120" height="60" as="geometry" />
        </mxCell>
        <mxCell id="AJx8Ky_he362x2AyVu-4-5" value="pc: PaymentController" style="rounded=1;whiteSpace=wrap;html=1;fillColor=#f0a30a;strokeColor=#BD7000;fontColor=#000000;" parent="1" vertex="1">
          <mxGeometry x="-415" y="440" width="130" height="60" as="geometry" />
        </mxCell>
        <mxCell id="AJx8Ky_he362x2AyVu-4-6" value="sc: staffcontroller" style="rounded=1;whiteSpace=wrap;html=1;fillColor=#f0a30a;strokeColor=#BD7000;fontColor=#000000;" parent="1" vertex="1">
          <mxGeometry x="-620" y="590" width="120" height="60" as="geometry" />
        </mxCell>
        <mxCell id="AJx8Ky_he362x2AyVu-4-7" value="sv: staffView" style="rounded=1;whiteSpace=wrap;html=1;fillColor=#f0a30a;strokeColor=#BD7000;fontColor=#000000;" parent="1" vertex="1">
          <mxGeometry x="-120" y="570" width="120" height="60" as="geometry" />
        </mxCell>
        <mxCell id="AJx8Ky_he362x2AyVu-4-8" value="db : DBConnected" style="rounded=1;whiteSpace=wrap;html=1;fillColor=#f0a30a;strokeColor=#BD7000;fontColor=#000000;" parent="1" vertex="1">
          <mxGeometry x="-740" y="280" width="120" height="60" as="geometry" />
        </mxCell>
        <mxCell id="AJx8Ky_he362x2AyVu-4-9" value="" style="curved=1;endArrow=classic;html=1;rounded=0;exitX=0.5;exitY=1;exitDx=0;exitDy=0;entryX=0;entryY=0.5;entryDx=0;entryDy=0;" parent="1" source="AJx8Ky_he362x2AyVu-4-8" target="AJx8Ky_he362x2AyVu-4-4" edge="1">
          <mxGeometry width="50" height="50" relative="1" as="geometry">
            <mxPoint x="-420" y="70" as="sourcePoint" />
            <mxPoint x="-370" y="20" as="targetPoint" />
            <Array as="points">
              <mxPoint x="-580" y="410" />
              <mxPoint x="-430" y="350" />
            </Array>
          </mxGeometry>
        </mxCell>
        <mxCell id="AJx8Ky_he362x2AyVu-4-10" value="&lt;div style=&quot;border-color: var(--border-color); font-size: 12px; background-color: rgb(251, 251, 251);&quot;&gt;&lt;font style=&quot;border-color: var(--border-color);&quot; face=&quot;Sarabun, sans-serif&quot;&gt;1.ดึงข้อมูลราคาและรายละเอียดของคอร์สเรียน&lt;/font&gt;&lt;/div&gt;&lt;div style=&quot;border-color: var(--border-color); font-size: 12px; background-color: rgb(251, 251, 251);&quot;&gt;&lt;font style=&quot;border-color: var(--border-color);&quot; face=&quot;Sarabun, sans-serif&quot;&gt;(Q4.1.1)&lt;/font&gt;&lt;/div&gt;&lt;span style=&quot;border-color: var(--border-color); font-size: 12px; background-color: rgb(251, 251, 251);&quot; id=&quot;docs-internal-guid-5b47f503-7fff-2f61-a643-0d3faabaed96&quot;&gt;&lt;/span&gt;" style="edgeLabel;html=1;align=center;verticalAlign=middle;resizable=0;points=[];" parent="AJx8Ky_he362x2AyVu-4-9" connectable="0" vertex="1">
          <mxGeometry x="-0.1088" y="2" relative="1" as="geometry">
            <mxPoint x="-1" as="offset" />
          </mxGeometry>
        </mxCell>
        <mxCell id="AJx8Ky_he362x2AyVu-4-11" value="" style="curved=1;endArrow=classic;html=1;rounded=0;exitX=1;exitY=0.5;exitDx=0;exitDy=0;entryX=0.5;entryY=1;entryDx=0;entryDy=0;" parent="1" source="AJx8Ky_he362x2AyVu-4-4" target="AJx8Ky_he362x2AyVu-4-1" edge="1">
          <mxGeometry width="50" height="50" relative="1" as="geometry">
            <mxPoint x="-260" y="70" as="sourcePoint" />
            <mxPoint x="-210" y="20" as="targetPoint" />
            <Array as="points">
              <mxPoint x="-220" y="280" />
              <mxPoint x="-140" y="280" />
            </Array>
          </mxGeometry>
        </mxCell>
        <mxCell id="AJx8Ky_he362x2AyVu-4-12" value="2.สร้าง QR Code&lt;br style=&quot;border-color: var(--border-color); font-size: 12px;&quot;&gt;&lt;span style=&quot;font-size: 12px;&quot;&gt;2.1 แสดงรายละเอียด&lt;/span&gt;" style="edgeLabel;html=1;align=center;verticalAlign=middle;resizable=0;points=[];" parent="AJx8Ky_he362x2AyVu-4-11" connectable="0" vertex="1">
          <mxGeometry x="-0.0101" relative="1" as="geometry">
            <mxPoint as="offset" />
          </mxGeometry>
        </mxCell>
        <mxCell id="AJx8Ky_he362x2AyVu-4-13" value="" style="curved=1;endArrow=classic;html=1;rounded=0;exitX=0;exitY=0.5;exitDx=0;exitDy=0;entryX=0.5;entryY=0;entryDx=0;entryDy=0;" parent="1" source="AJx8Ky_he362x2AyVu-4-1" target="AJx8Ky_he362x2AyVu-4-4" edge="1">
          <mxGeometry width="50" height="50" relative="1" as="geometry">
            <mxPoint x="-260" y="70" as="sourcePoint" />
            <mxPoint x="-210" y="20" as="targetPoint" />
            <Array as="points">
              <mxPoint x="-280" y="140" />
              <mxPoint x="-350" y="180" />
            </Array>
          </mxGeometry>
        </mxCell>
        <mxCell id="AJx8Ky_he362x2AyVu-4-14" value="3.ตรวจสอบข้อมูล&lt;br&gt;3.1 ทำการชำระเงินภายในเวลา&lt;br style=&quot;border-color: var(--border-color); font-size: 12px; background-color: rgb(251, 251, 251);&quot;&gt;&lt;span style=&quot;font-size: 12px; background-color: rgb(251, 251, 251);&quot;&gt;ภายในเวลาที่กำหนด&lt;br&gt;&lt;/span&gt;4. ใส่รูปสลิปการโอนเงิน" style="edgeLabel;html=1;align=center;verticalAlign=middle;resizable=0;points=[];" parent="AJx8Ky_he362x2AyVu-4-13" connectable="0" vertex="1">
          <mxGeometry x="0.1308" y="2" relative="1" as="geometry">
            <mxPoint as="offset" />
          </mxGeometry>
        </mxCell>
        <mxCell id="AJx8Ky_he362x2AyVu-4-15" value="" style="curved=1;endArrow=classic;html=1;rounded=0;exitX=1;exitY=0.5;exitDx=0;exitDy=0;entryX=0.5;entryY=0;entryDx=0;entryDy=0;" parent="1" source="AJx8Ky_he362x2AyVu-4-5" target="AJx8Ky_he362x2AyVu-4-7" edge="1">
          <mxGeometry width="50" height="50" relative="1" as="geometry">
            <mxPoint x="-270" y="430" as="sourcePoint" />
            <mxPoint x="-220" y="380" as="targetPoint" />
            <Array as="points">
              <mxPoint x="-160" y="460" />
              <mxPoint x="-70" y="500" />
            </Array>
          </mxGeometry>
        </mxCell>
        <mxCell id="AJx8Ky_he362x2AyVu-4-16" value="5.1 ตรวจสอบความถูกต้องของสลิป" style="edgeLabel;html=1;align=center;verticalAlign=middle;resizable=0;points=[];" parent="AJx8Ky_he362x2AyVu-4-15" connectable="0" vertex="1">
          <mxGeometry x="0.0507" y="9" relative="1" as="geometry">
            <mxPoint x="-1" as="offset" />
          </mxGeometry>
        </mxCell>
        <mxCell id="AJx8Ky_he362x2AyVu-4-17" value="" style="curved=1;endArrow=classic;html=1;rounded=0;exitX=0.25;exitY=1;exitDx=0;exitDy=0;entryX=0.75;entryY=1;entryDx=0;entryDy=0;" parent="1" source="AJx8Ky_he362x2AyVu-4-7" target="AJx8Ky_he362x2AyVu-4-7" edge="1">
          <mxGeometry width="50" height="50" relative="1" as="geometry">
            <mxPoint x="-625" y="750" as="sourcePoint" />
            <mxPoint x="-575" y="700" as="targetPoint" />
            <Array as="points">
              <mxPoint x="-70" y="750" />
            </Array>
          </mxGeometry>
        </mxCell>
        <mxCell id="AJx8Ky_he362x2AyVu-4-18" value="6.เจ้าหน้าที่ตรวจสอบข้อมูล" style="edgeLabel;html=1;align=center;verticalAlign=middle;resizable=0;points=[];" parent="AJx8Ky_he362x2AyVu-4-17" connectable="0" vertex="1">
          <mxGeometry x="-0.527" y="6" relative="1" as="geometry">
            <mxPoint as="offset" />
          </mxGeometry>
        </mxCell>
        <mxCell id="AJx8Ky_he362x2AyVu-4-19" value="" style="endArrow=classic;html=1;rounded=0;entryX=1;entryY=0.5;entryDx=0;entryDy=0;" parent="1" target="AJx8Ky_he362x2AyVu-4-6" edge="1">
          <mxGeometry width="50" height="50" relative="1" as="geometry">
            <mxPoint x="-120" y="620" as="sourcePoint" />
            <mxPoint x="-220" y="380" as="targetPoint" />
          </mxGeometry>
        </mxCell>
        <mxCell id="AJx8Ky_he362x2AyVu-4-20" value="7. ยินยันความถูกต้อง(Q4.1.3)" style="edgeLabel;html=1;align=center;verticalAlign=middle;resizable=0;points=[];" parent="AJx8Ky_he362x2AyVu-4-19" connectable="0" vertex="1">
          <mxGeometry x="-0.3765" relative="1" as="geometry">
            <mxPoint x="-71" as="offset" />
          </mxGeometry>
        </mxCell>
        <mxCell id="AJx8Ky_he362x2AyVu-4-21" value="" style="curved=1;endArrow=classic;html=1;rounded=0;exitX=0;exitY=0.5;exitDx=0;exitDy=0;entryX=0;entryY=0.5;entryDx=0;entryDy=0;" parent="1" source="AJx8Ky_he362x2AyVu-4-6" target="AJx8Ky_he362x2AyVu-4-8" edge="1">
          <mxGeometry width="50" height="50" relative="1" as="geometry">
            <mxPoint x="-710" y="600" as="sourcePoint" />
            <mxPoint x="-660" y="550" as="targetPoint" />
            <Array as="points">
              <mxPoint x="-680" y="620" />
              <mxPoint x="-850" y="460" />
            </Array>
          </mxGeometry>
        </mxCell>
        <mxCell id="AJx8Ky_he362x2AyVu-4-22" value="8. บันทึกข้อมูล(Q4.1.4" style="edgeLabel;html=1;align=center;verticalAlign=middle;resizable=0;points=[];" parent="AJx8Ky_he362x2AyVu-4-21" connectable="0" vertex="1">
          <mxGeometry x="-0.0999" y="-4" relative="1" as="geometry">
            <mxPoint x="-1" as="offset" />
          </mxGeometry>
        </mxCell>
        <mxCell id="AJx8Ky_he362x2AyVu-4-23" value="" style="curved=1;endArrow=classic;html=1;rounded=0;entryX=0.25;entryY=0;entryDx=0;entryDy=0;" parent="1" target="AJx8Ky_he362x2AyVu-4-1" edge="1">
          <mxGeometry width="50" height="50" relative="1" as="geometry">
            <mxPoint x="-680" y="280" as="sourcePoint" />
            <mxPoint x="-220" y="20" as="targetPoint" />
            <Array as="points">
              <mxPoint x="-680" y="120" />
              <mxPoint x="-530" />
            </Array>
          </mxGeometry>
        </mxCell>
        <mxCell id="AJx8Ky_he362x2AyVu-4-24" value="9.ส่งข้อมูลใบเสร็จ" style="edgeLabel;html=1;align=center;verticalAlign=middle;resizable=0;points=[];" parent="AJx8Ky_he362x2AyVu-4-23" connectable="0" vertex="1">
          <mxGeometry x="-0.1643" y="-16" relative="1" as="geometry">
            <mxPoint y="1" as="offset" />
          </mxGeometry>
        </mxCell>
      </root>
    </mxGraphModel>
  </diagram>
  <diagram name="uc4-alt1" id="Ofh2twcT58DX6zme0Sm9">
    <mxGraphModel dx="940" dy="713" grid="1" gridSize="10" guides="1" tooltips="1" connect="1" arrows="1" fold="1" page="0" pageScale="1" pageWidth="850" pageHeight="1100" math="0" shadow="0">
      <root>
        <mxCell id="0" />
        <mxCell id="1" parent="0" />
        <mxCell id="eQiYjQ1p64SJs0p7Yifq-1" value="c:Customer" style="rounded=1;whiteSpace=wrap;html=1;fillColor=#f0a30a;fontColor=#000000;strokeColor=#BD7000;" parent="1" vertex="1">
          <mxGeometry x="630" y="140" width="120" height="60" as="geometry" />
        </mxCell>
        <mxCell id="eQiYjQ1p64SJs0p7Yifq-2" style="edgeStyle=orthogonalEdgeStyle;rounded=0;orthogonalLoop=1;jettySize=auto;html=1;exitX=0.5;exitY=1;exitDx=0;exitDy=0;entryX=0.5;entryY=0;entryDx=0;entryDy=0;" parent="1" source="eQiYjQ1p64SJs0p7Yifq-4" target="eQiYjQ1p64SJs0p7Yifq-5" edge="1">
          <mxGeometry relative="1" as="geometry" />
        </mxCell>
        <mxCell id="eQiYjQ1p64SJs0p7Yifq-3" value="5.ส่งข้อมูลสลิป" style="edgeLabel;html=1;align=center;verticalAlign=middle;resizable=0;points=[];" parent="eQiYjQ1p64SJs0p7Yifq-2" connectable="0" vertex="1">
          <mxGeometry x="-0.2643" y="-4" relative="1" as="geometry">
            <mxPoint x="4" y="12" as="offset" />
          </mxGeometry>
        </mxCell>
        <mxCell id="eQiYjQ1p64SJs0p7Yifq-4" value="pv: paymentView" style="rounded=1;whiteSpace=wrap;html=1;fillColor=#f0a30a;strokeColor=#BD7000;fontColor=#000000;" parent="1" vertex="1">
          <mxGeometry x="430" y="260" width="120" height="60" as="geometry" />
        </mxCell>
        <mxCell id="eQiYjQ1p64SJs0p7Yifq-5" value="pc: PaymentController" style="rounded=1;whiteSpace=wrap;html=1;fillColor=#f0a30a;strokeColor=#BD7000;fontColor=#000000;" parent="1" vertex="1">
          <mxGeometry x="425" y="450" width="130" height="60" as="geometry" />
        </mxCell>
        <mxCell id="eQiYjQ1p64SJs0p7Yifq-6" value="sc: staffcontroller" style="rounded=1;whiteSpace=wrap;html=1;fillColor=#f0a30a;strokeColor=#BD7000;fontColor=#000000;" parent="1" vertex="1">
          <mxGeometry x="220" y="600" width="120" height="60" as="geometry" />
        </mxCell>
        <mxCell id="eQiYjQ1p64SJs0p7Yifq-7" value="sv: staffView" style="rounded=1;whiteSpace=wrap;html=1;fillColor=#f0a30a;strokeColor=#BD7000;fontColor=#000000;" parent="1" vertex="1">
          <mxGeometry x="720" y="580" width="120" height="60" as="geometry" />
        </mxCell>
        <mxCell id="eQiYjQ1p64SJs0p7Yifq-8" value="db : DBConnected" style="rounded=1;whiteSpace=wrap;html=1;fillColor=#f0a30a;strokeColor=#BD7000;fontColor=#000000;" parent="1" vertex="1">
          <mxGeometry x="100" y="290" width="120" height="60" as="geometry" />
        </mxCell>
        <mxCell id="eQiYjQ1p64SJs0p7Yifq-9" value="" style="curved=1;endArrow=classic;html=1;rounded=0;exitX=0.5;exitY=1;exitDx=0;exitDy=0;entryX=0;entryY=0.5;entryDx=0;entryDy=0;" parent="1" source="eQiYjQ1p64SJs0p7Yifq-8" target="eQiYjQ1p64SJs0p7Yifq-4" edge="1">
          <mxGeometry width="50" height="50" relative="1" as="geometry">
            <mxPoint x="420" y="80" as="sourcePoint" />
            <mxPoint x="470" y="30" as="targetPoint" />
            <Array as="points">
              <mxPoint x="260" y="420" />
              <mxPoint x="410" y="360" />
            </Array>
          </mxGeometry>
        </mxCell>
        <mxCell id="eQiYjQ1p64SJs0p7Yifq-10" value="&lt;div style=&quot;border-color: var(--border-color); font-size: 12px; background-color: rgb(251, 251, 251);&quot;&gt;&lt;font style=&quot;border-color: var(--border-color);&quot; face=&quot;Sarabun, sans-serif&quot;&gt;1.ดึงข้อมูลราคาและรายละเอียดของคอร์สเรียน&lt;/font&gt;&lt;/div&gt;&lt;div style=&quot;border-color: var(--border-color); font-size: 12px; background-color: rgb(251, 251, 251);&quot;&gt;&lt;font style=&quot;border-color: var(--border-color);&quot; face=&quot;Sarabun, sans-serif&quot;&gt;(Q4.1.1)&lt;/font&gt;&lt;/div&gt;&lt;span style=&quot;border-color: var(--border-color); font-size: 12px; background-color: rgb(251, 251, 251);&quot; id=&quot;docs-internal-guid-5b47f503-7fff-2f61-a643-0d3faabaed96&quot;&gt;&lt;/span&gt;" style="edgeLabel;html=1;align=center;verticalAlign=middle;resizable=0;points=[];" parent="eQiYjQ1p64SJs0p7Yifq-9" connectable="0" vertex="1">
          <mxGeometry x="-0.1088" y="2" relative="1" as="geometry">
            <mxPoint x="-1" as="offset" />
          </mxGeometry>
        </mxCell>
        <mxCell id="eQiYjQ1p64SJs0p7Yifq-11" value="" style="curved=1;endArrow=classic;html=1;rounded=0;exitX=1;exitY=0.5;exitDx=0;exitDy=0;entryX=0.5;entryY=1;entryDx=0;entryDy=0;" parent="1" source="eQiYjQ1p64SJs0p7Yifq-4" target="eQiYjQ1p64SJs0p7Yifq-1" edge="1">
          <mxGeometry width="50" height="50" relative="1" as="geometry">
            <mxPoint x="580" y="80" as="sourcePoint" />
            <mxPoint x="630" y="30" as="targetPoint" />
            <Array as="points">
              <mxPoint x="620" y="290" />
              <mxPoint x="700" y="290" />
            </Array>
          </mxGeometry>
        </mxCell>
        <mxCell id="eQiYjQ1p64SJs0p7Yifq-12" value="2.แสดงข้อมูล" style="edgeLabel;html=1;align=center;verticalAlign=middle;resizable=0;points=[];" parent="eQiYjQ1p64SJs0p7Yifq-11" connectable="0" vertex="1">
          <mxGeometry x="-0.0101" relative="1" as="geometry">
            <mxPoint as="offset" />
          </mxGeometry>
        </mxCell>
        <mxCell id="eQiYjQ1p64SJs0p7Yifq-13" value="" style="curved=1;endArrow=classic;html=1;rounded=0;exitX=0;exitY=0.5;exitDx=0;exitDy=0;entryX=0.5;entryY=0;entryDx=0;entryDy=0;" parent="1" source="eQiYjQ1p64SJs0p7Yifq-1" target="eQiYjQ1p64SJs0p7Yifq-4" edge="1">
          <mxGeometry width="50" height="50" relative="1" as="geometry">
            <mxPoint x="580" y="80" as="sourcePoint" />
            <mxPoint x="630" y="30" as="targetPoint" />
            <Array as="points">
              <mxPoint x="560" y="150" />
              <mxPoint x="490" y="190" />
            </Array>
          </mxGeometry>
        </mxCell>
        <mxCell id="eQiYjQ1p64SJs0p7Yifq-14" value="3.ตรวจสอบข้อมูล&lt;br&gt;A3.1 ชำระเงินไม่สำเร็จ&lt;br&gt;ตามเวลาที่กำหนด&lt;br&gt;A3.1 ชำระเงืนไม่สำเร็จในเวลาที่กำหนด&lt;br&gt;4. ใส่รูปสลิปการโอนเงิน" style="edgeLabel;html=1;align=center;verticalAlign=middle;resizable=0;points=[];" parent="eQiYjQ1p64SJs0p7Yifq-13" connectable="0" vertex="1">
          <mxGeometry x="0.1308" y="2" relative="1" as="geometry">
            <mxPoint as="offset" />
          </mxGeometry>
        </mxCell>
        <mxCell id="eQiYjQ1p64SJs0p7Yifq-15" value="" style="curved=1;endArrow=classic;html=1;rounded=0;exitX=1;exitY=0.5;exitDx=0;exitDy=0;entryX=0.5;entryY=0;entryDx=0;entryDy=0;" parent="1" source="eQiYjQ1p64SJs0p7Yifq-5" target="eQiYjQ1p64SJs0p7Yifq-7" edge="1">
          <mxGeometry width="50" height="50" relative="1" as="geometry">
            <mxPoint x="570" y="440" as="sourcePoint" />
            <mxPoint x="620" y="390" as="targetPoint" />
            <Array as="points">
              <mxPoint x="680" y="470" />
              <mxPoint x="770" y="510" />
            </Array>
          </mxGeometry>
        </mxCell>
        <mxCell id="eQiYjQ1p64SJs0p7Yifq-16" value="5.1 ตรวจสอบความถูกต้องของสลิป" style="edgeLabel;html=1;align=center;verticalAlign=middle;resizable=0;points=[];" parent="eQiYjQ1p64SJs0p7Yifq-15" connectable="0" vertex="1">
          <mxGeometry x="0.0507" y="9" relative="1" as="geometry">
            <mxPoint x="-1" as="offset" />
          </mxGeometry>
        </mxCell>
        <mxCell id="eQiYjQ1p64SJs0p7Yifq-17" value="" style="curved=1;endArrow=classic;html=1;rounded=0;exitX=0.25;exitY=1;exitDx=0;exitDy=0;entryX=0.75;entryY=1;entryDx=0;entryDy=0;" parent="1" source="eQiYjQ1p64SJs0p7Yifq-7" target="eQiYjQ1p64SJs0p7Yifq-7" edge="1">
          <mxGeometry width="50" height="50" relative="1" as="geometry">
            <mxPoint x="215" y="760" as="sourcePoint" />
            <mxPoint x="265" y="710" as="targetPoint" />
            <Array as="points">
              <mxPoint x="770" y="760" />
            </Array>
          </mxGeometry>
        </mxCell>
        <mxCell id="eQiYjQ1p64SJs0p7Yifq-18" value="A6.เจ้าหน้าที่ตรวจสอบข้อมูล" style="edgeLabel;html=1;align=center;verticalAlign=middle;resizable=0;points=[];" parent="eQiYjQ1p64SJs0p7Yifq-17" connectable="0" vertex="1">
          <mxGeometry x="-0.527" y="6" relative="1" as="geometry">
            <mxPoint as="offset" />
          </mxGeometry>
        </mxCell>
        <mxCell id="eQiYjQ1p64SJs0p7Yifq-19" value="" style="endArrow=classic;html=1;rounded=0;entryX=1;entryY=0.5;entryDx=0;entryDy=0;" parent="1" target="eQiYjQ1p64SJs0p7Yifq-6" edge="1">
          <mxGeometry width="50" height="50" relative="1" as="geometry">
            <mxPoint x="720" y="630" as="sourcePoint" />
            <mxPoint x="620" y="390" as="targetPoint" />
          </mxGeometry>
        </mxCell>
        <mxCell id="eQiYjQ1p64SJs0p7Yifq-20" value="6A.1 เจ้าหน้าที่ยอมรับการ refund" style="edgeLabel;html=1;align=center;verticalAlign=middle;resizable=0;points=[];" parent="eQiYjQ1p64SJs0p7Yifq-19" connectable="0" vertex="1">
          <mxGeometry x="-0.3765" relative="1" as="geometry">
            <mxPoint x="-71" as="offset" />
          </mxGeometry>
        </mxCell>
      </root>
    </mxGraphModel>
  </diagram>
  <diagram id="mSvl7l0x5pCCYJpzzAJP" name="uc5">
    <mxGraphModel dx="940" dy="713" grid="1" gridSize="10" guides="1" tooltips="1" connect="1" arrows="1" fold="1" page="0" pageScale="1" pageWidth="850" pageHeight="1100" math="0" shadow="0">
      <root>
        <mxCell id="0" />
        <mxCell id="1" parent="0" />
        <mxCell id="quHbowJ6m_PrxaVCBncw-1" value="tv: TeacherView" style="rounded=1;whiteSpace=wrap;html=1;fillColor=#f0a30a;strokeColor=#BD7000;fontColor=#000000;" parent="1" vertex="1">
          <mxGeometry x="380" y="360" width="120" height="60" as="geometry" />
        </mxCell>
        <mxCell id="quHbowJ6m_PrxaVCBncw-2" value="tc: TeacherController" style="rounded=1;whiteSpace=wrap;html=1;fillColor=#f0a30a;strokeColor=#BD7000;fontColor=#000000;" parent="1" vertex="1">
          <mxGeometry x="640" y="540" width="120" height="60" as="geometry" />
        </mxCell>
        <mxCell id="quHbowJ6m_PrxaVCBncw-3" value="db : DBConnected" style="rounded=1;whiteSpace=wrap;html=1;fillColor=#f0a30a;strokeColor=#BD7000;fontColor=#000000;" parent="1" vertex="1">
          <mxGeometry x="360" y="710" width="120" height="60" as="geometry" />
        </mxCell>
        <mxCell id="g7IGu69CGg0GgpuKq8oM-1" value="t:Teacher" style="rounded=1;whiteSpace=wrap;html=1;fillColor=#f0a30a;strokeColor=#BD7000;fontColor=#000000;" parent="1" vertex="1">
          <mxGeometry x="110" y="540" width="120" height="60" as="geometry" />
        </mxCell>
        <mxCell id="g7IGu69CGg0GgpuKq8oM-3" value="" style="curved=1;endArrow=classic;html=1;rounded=0;exitX=0;exitY=0.5;exitDx=0;exitDy=0;entryX=0.5;entryY=1;entryDx=0;entryDy=0;" parent="1" source="quHbowJ6m_PrxaVCBncw-3" target="g7IGu69CGg0GgpuKq8oM-1" edge="1">
          <mxGeometry width="50" height="50" relative="1" as="geometry">
            <mxPoint x="400" y="620" as="sourcePoint" />
            <mxPoint x="450" y="570" as="targetPoint" />
            <Array as="points">
              <mxPoint x="240" y="750" />
              <mxPoint x="180" y="680" />
            </Array>
          </mxGeometry>
        </mxCell>
        <mxCell id="g7IGu69CGg0GgpuKq8oM-4" value="&lt;div style=&quot;border-color: var(--border-color);&quot;&gt;1.แสดงรายชื่อของผู้ที่อยู่ในคาบเรียนนี้&amp;nbsp;(Q5.1.1)&lt;/div&gt;&lt;div style=&quot;border-color: var(--border-color);&quot;&gt;&lt;br style=&quot;border-color: var(--border-color); font-size: 12px; background-color: rgb(251, 251, 251);&quot;&gt;&lt;/div&gt;" style="edgeLabel;html=1;align=center;verticalAlign=middle;resizable=0;points=[];" parent="g7IGu69CGg0GgpuKq8oM-3" connectable="0" vertex="1">
          <mxGeometry x="-0.0517" y="-12" relative="1" as="geometry">
            <mxPoint as="offset" />
          </mxGeometry>
        </mxCell>
        <mxCell id="g7IGu69CGg0GgpuKq8oM-6" value="" style="curved=1;endArrow=classic;html=1;rounded=0;exitX=0.5;exitY=0;exitDx=0;exitDy=0;entryX=-0.033;entryY=0.633;entryDx=0;entryDy=0;entryPerimeter=0;" parent="1" source="g7IGu69CGg0GgpuKq8oM-1" target="quHbowJ6m_PrxaVCBncw-1" edge="1">
          <mxGeometry width="50" height="50" relative="1" as="geometry">
            <mxPoint x="400" y="620" as="sourcePoint" />
            <mxPoint x="450" y="570" as="targetPoint" />
            <Array as="points">
              <mxPoint x="190" y="450" />
              <mxPoint x="290" y="400" />
            </Array>
          </mxGeometry>
        </mxCell>
        <mxCell id="g7IGu69CGg0GgpuKq8oM-7" value="2.ครูทำการกดปุ่มเพื่อเช็คชื่อ" style="edgeLabel;html=1;align=center;verticalAlign=middle;resizable=0;points=[];" parent="g7IGu69CGg0GgpuKq8oM-6" connectable="0" vertex="1">
          <mxGeometry x="-0.1514" y="-3" relative="1" as="geometry">
            <mxPoint as="offset" />
          </mxGeometry>
        </mxCell>
        <mxCell id="g7IGu69CGg0GgpuKq8oM-8" value="" style="curved=1;endArrow=classic;html=1;rounded=0;exitX=1;exitY=0.5;exitDx=0;exitDy=0;entryX=0.5;entryY=0;entryDx=0;entryDy=0;" parent="1" source="quHbowJ6m_PrxaVCBncw-1" target="quHbowJ6m_PrxaVCBncw-2" edge="1">
          <mxGeometry width="50" height="50" relative="1" as="geometry">
            <mxPoint x="400" y="620" as="sourcePoint" />
            <mxPoint x="450" y="570" as="targetPoint" />
            <Array as="points">
              <mxPoint x="590" y="400" />
              <mxPoint x="690" y="460" />
            </Array>
          </mxGeometry>
        </mxCell>
        <mxCell id="g7IGu69CGg0GgpuKq8oM-9" value="3.ระบบทำการดึงข้อมูลของนักเรียน&lt;br style=&quot;border-color: var(--border-color); padding: 0px; margin: 0px; font-size: 12px; text-align: left; background-color: rgb(251, 251, 251);&quot;&gt;&lt;span style=&quot;font-size: 12px; text-align: left; background-color: rgb(251, 251, 251);&quot;&gt;&amp;nbsp;&amp;nbsp;&amp;nbsp;&amp;nbsp;&amp;nbsp;&amp;nbsp;&amp;nbsp;&amp;nbsp;&amp;nbsp;&amp;nbsp;&amp;nbsp;&amp;nbsp;&amp;nbsp;&amp;nbsp;&amp;nbsp;&amp;nbsp;&amp;nbsp;&amp;nbsp;&amp;nbsp;&amp;nbsp;(Q5.1.2)&lt;/span&gt;" style="edgeLabel;html=1;align=center;verticalAlign=middle;resizable=0;points=[];" parent="g7IGu69CGg0GgpuKq8oM-8" connectable="0" vertex="1">
          <mxGeometry x="0.1128" y="1" relative="1" as="geometry">
            <mxPoint as="offset" />
          </mxGeometry>
        </mxCell>
        <mxCell id="g7IGu69CGg0GgpuKq8oM-10" value="" style="curved=1;endArrow=classic;html=1;rounded=0;exitX=0.5;exitY=1;exitDx=0;exitDy=0;entryX=1;entryY=0.5;entryDx=0;entryDy=0;" parent="1" source="quHbowJ6m_PrxaVCBncw-2" target="quHbowJ6m_PrxaVCBncw-3" edge="1">
          <mxGeometry width="50" height="50" relative="1" as="geometry">
            <mxPoint x="400" y="620" as="sourcePoint" />
            <mxPoint x="450" y="570" as="targetPoint" />
            <Array as="points">
              <mxPoint x="680" y="670" />
              <mxPoint x="600" y="750" />
            </Array>
          </mxGeometry>
        </mxCell>
        <mxCell id="g7IGu69CGg0GgpuKq8oM-11" value="&lt;div style=&quot;border-color: var(--border-color);&quot;&gt;4.อัปเดตสถานะของการเช็คชื่อ&lt;/div&gt;&lt;div style=&quot;border-color: var(--border-color);&quot;&gt;(Q5.1.3)&lt;/div&gt;&lt;div style=&quot;border-color: var(--border-color);&quot;&gt;&lt;br style=&quot;border-color: var(--border-color); font-size: 12px; background-color: rgb(251, 251, 251);&quot;&gt;&lt;/div&gt;" style="edgeLabel;html=1;align=center;verticalAlign=middle;resizable=0;points=[];" parent="g7IGu69CGg0GgpuKq8oM-10" connectable="0" vertex="1">
          <mxGeometry x="0.0294" y="3" relative="1" as="geometry">
            <mxPoint as="offset" />
          </mxGeometry>
        </mxCell>
      </root>
    </mxGraphModel>
  </diagram>
  <diagram id="7ewnwG9tEmgbxWcgXYzY" name="uc6">
    <mxGraphModel grid="1" page="0" gridSize="10" guides="1" tooltips="1" connect="1" arrows="1" fold="1" pageScale="1" pageWidth="850" pageHeight="1100" math="0" shadow="0">
      <root>
        <mxCell id="0" />
        <mxCell id="1" parent="0" />
        <mxCell id="GfXseyObPwheIeoetcSY-1" value="sv: studenView" style="rounded=1;whiteSpace=wrap;html=1;fillColor=#f0a30a;strokeColor=#BD7000;fontColor=#000000;" vertex="1" parent="1">
          <mxGeometry x="370" y="200" width="120" height="60" as="geometry" />
        </mxCell>
        <mxCell id="GfXseyObPwheIeoetcSY-2" value="db : DBConnected" style="rounded=1;whiteSpace=wrap;html=1;fillColor=#f0a30a;strokeColor=#BD7000;fontColor=#000000;" vertex="1" parent="1">
          <mxGeometry x="630" y="380" width="120" height="60" as="geometry" />
        </mxCell>
        <mxCell id="k4mgP4IrbInVGcrCNL6p-2" style="edgeStyle=orthogonalEdgeStyle;rounded=0;orthogonalLoop=1;jettySize=auto;html=1;exitX=0;exitY=0.5;exitDx=0;exitDy=0;entryX=1;entryY=0.5;entryDx=0;entryDy=0;" edge="1" parent="1" source="GfXseyObPwheIeoetcSY-3" target="k4mgP4IrbInVGcrCNL6p-1">
          <mxGeometry relative="1" as="geometry">
            <Array as="points">
              <mxPoint x="390" y="590" />
              <mxPoint x="390" y="590" />
            </Array>
          </mxGeometry>
        </mxCell>
        <mxCell id="k4mgP4IrbInVGcrCNL6p-3" value="4.เจ้าหน้าที่ทำการยืนยันการขอเรียนชดเชย" style="edgeLabel;html=1;align=center;verticalAlign=middle;resizable=0;points=[];" connectable="0" vertex="1" parent="k4mgP4IrbInVGcrCNL6p-2">
          <mxGeometry x="-0.0727" y="-2" relative="1" as="geometry">
            <mxPoint x="-14" y="12" as="offset" />
          </mxGeometry>
        </mxCell>
        <mxCell id="GfXseyObPwheIeoetcSY-3" value="stv: staffView" style="rounded=1;whiteSpace=wrap;html=1;fillColor=#f0a30a;strokeColor=#BD7000;fontColor=#000000;" vertex="1" parent="1">
          <mxGeometry x="450" y="560" width="120" height="60" as="geometry" />
        </mxCell>
        <mxCell id="GfXseyObPwheIeoetcSY-4" value="s: Staff" style="rounded=1;whiteSpace=wrap;html=1;fillColor=#f0a30a;strokeColor=#BD7000;fontColor=#000000;" vertex="1" parent="1">
          <mxGeometry x="100" y="380" width="120" height="60" as="geometry" />
        </mxCell>
        <mxCell id="GfXseyObPwheIeoetcSY-7" value="" style="curved=1;endArrow=classic;html=1;rounded=0;exitX=0.5;exitY=0;exitDx=0;exitDy=0;entryX=-0.033;entryY=0.633;entryDx=0;entryDy=0;entryPerimeter=0;" edge="1" parent="1" source="GfXseyObPwheIeoetcSY-4" target="GfXseyObPwheIeoetcSY-1">
          <mxGeometry width="50" height="50" relative="1" as="geometry">
            <mxPoint x="390" y="460" as="sourcePoint" />
            <mxPoint x="440" y="410" as="targetPoint" />
            <Array as="points">
              <mxPoint x="180" y="290" />
              <mxPoint x="280" y="240" />
            </Array>
          </mxGeometry>
        </mxCell>
        <mxCell id="GfXseyObPwheIeoetcSY-8" value="1.ทำการเลือก timeslot ที่จะเรียนชดเชย" style="edgeLabel;html=1;align=center;verticalAlign=middle;resizable=0;points=[];" connectable="0" vertex="1" parent="GfXseyObPwheIeoetcSY-7">
          <mxGeometry x="-0.1514" y="-3" relative="1" as="geometry">
            <mxPoint as="offset" />
          </mxGeometry>
        </mxCell>
        <mxCell id="GfXseyObPwheIeoetcSY-9" value="" style="curved=1;endArrow=classic;html=1;rounded=0;exitX=1;exitY=0.5;exitDx=0;exitDy=0;entryX=0.5;entryY=0;entryDx=0;entryDy=0;" edge="1" parent="1" source="GfXseyObPwheIeoetcSY-1" target="GfXseyObPwheIeoetcSY-2">
          <mxGeometry width="50" height="50" relative="1" as="geometry">
            <mxPoint x="390" y="460" as="sourcePoint" />
            <mxPoint x="440" y="410" as="targetPoint" />
            <Array as="points">
              <mxPoint x="580" y="240" />
              <mxPoint x="680" y="300" />
            </Array>
          </mxGeometry>
        </mxCell>
        <mxCell id="GfXseyObPwheIeoetcSY-10" value="&lt;div style=&quot;border-color: var(--border-color);&quot;&gt;2.ระบบทำการดึงข้อมูลของนักเรียน&lt;/div&gt;&lt;div style=&quot;border-color: var(--border-color);&quot;&gt;(Q5.1.2)&lt;/div&gt;&lt;div style=&quot;border-color: var(--border-color);&quot;&gt;&lt;br style=&quot;border-color: var(--border-color); font-size: 12px; background-color: rgb(251, 251, 251);&quot;&gt;&lt;/div&gt;" style="edgeLabel;html=1;align=center;verticalAlign=middle;resizable=0;points=[];" connectable="0" vertex="1" parent="GfXseyObPwheIeoetcSY-9">
          <mxGeometry x="0.1128" y="1" relative="1" as="geometry">
            <mxPoint as="offset" />
          </mxGeometry>
        </mxCell>
        <mxCell id="GfXseyObPwheIeoetcSY-11" value="" style="curved=1;endArrow=classic;html=1;rounded=0;exitX=0.5;exitY=1;exitDx=0;exitDy=0;entryX=1;entryY=0.5;entryDx=0;entryDy=0;" edge="1" parent="1" source="GfXseyObPwheIeoetcSY-2" target="GfXseyObPwheIeoetcSY-3">
          <mxGeometry width="50" height="50" relative="1" as="geometry">
            <mxPoint x="390" y="460" as="sourcePoint" />
            <mxPoint x="440" y="410" as="targetPoint" />
            <Array as="points">
              <mxPoint x="670" y="510" />
              <mxPoint x="590" y="590" />
            </Array>
          </mxGeometry>
        </mxCell>
        <mxCell id="GfXseyObPwheIeoetcSY-12" value="&lt;div style=&quot;border-color: var(--border-color);&quot;&gt;3.ระบบส่งข้อมูลให้เจ้าหน้าที่&amp;nbsp;&lt;br&gt;&lt;/div&gt;" style="edgeLabel;html=1;align=center;verticalAlign=middle;resizable=0;points=[];" connectable="0" vertex="1" parent="GfXseyObPwheIeoetcSY-11">
          <mxGeometry x="0.0294" y="3" relative="1" as="geometry">
            <mxPoint as="offset" />
          </mxGeometry>
        </mxCell>
        <mxCell id="GfXseyObPwheIeoetcSY-13" value="" style="curved=1;endArrow=classic;html=1;rounded=0;entryX=0;entryY=0.75;entryDx=0;entryDy=0;exitX=0;exitY=0.25;exitDx=0;exitDy=0;" edge="1" parent="1" source="GfXseyObPwheIeoetcSY-2" target="GfXseyObPwheIeoetcSY-2">
          <mxGeometry width="50" height="50" relative="1" as="geometry">
            <mxPoint x="760" y="400" as="sourcePoint" />
            <mxPoint x="760" y="425" as="targetPoint" />
            <Array as="points">
              <mxPoint x="600" y="400" />
              <mxPoint x="600" y="420" />
            </Array>
          </mxGeometry>
        </mxCell>
        <mxCell id="GfXseyObPwheIeoetcSY-14" value="&lt;p style=&quot;line-height: 1.2; margin-top: 0pt; margin-bottom: 0pt;&quot; dir=&quot;ltr&quot;&gt;&lt;/p&gt;&lt;p style=&quot;line-height: 1.2; margin-top: 0pt; margin-bottom: 0pt;&quot; dir=&quot;ltr&quot;&gt;&lt;/p&gt;&lt;div&gt;&lt;/div&gt;&lt;div style=&quot;border-color: var(--border-color);&quot;&gt;5.ระบบทำการใส่ชื่อของนักเรียนเข้าใน timeslot ที่เลือก&amp;nbsp;&amp;nbsp;&lt;/div&gt;&lt;div style=&quot;border-color: var(--border-color);&quot;&gt;&lt;br style=&quot;border-color: var(--border-color);&quot;&gt;&lt;/div&gt;&lt;div style=&quot;border-color: var(--border-color);&quot;&gt;(Q6.1.1)&amp;nbsp;&lt;/div&gt;" style="edgeLabel;html=1;align=center;verticalAlign=middle;resizable=0;points=[];" connectable="0" vertex="1" parent="GfXseyObPwheIeoetcSY-13">
          <mxGeometry x="-0.0012" y="-2" relative="1" as="geometry">
            <mxPoint x="-148" y="-10" as="offset" />
          </mxGeometry>
        </mxCell>
        <mxCell id="k4mgP4IrbInVGcrCNL6p-1" value="stc: staffController" style="rounded=1;whiteSpace=wrap;html=1;fillColor=#f0a30a;strokeColor=#BD7000;fontColor=#000000;" vertex="1" parent="1">
          <mxGeometry x="100" y="560" width="120" height="60" as="geometry" />
        </mxCell>
        <mxCell id="k4mgP4IrbInVGcrCNL6p-5" style="edgeStyle=orthogonalEdgeStyle;rounded=0;orthogonalLoop=1;jettySize=auto;html=1;exitX=0;exitY=0;exitDx=0;exitDy=0;entryX=0.6;entryY=1.05;entryDx=0;entryDy=0;entryPerimeter=0;" edge="1" parent="1" source="GfXseyObPwheIeoetcSY-2" target="GfXseyObPwheIeoetcSY-1">
          <mxGeometry relative="1" as="geometry" />
        </mxCell>
        <mxCell id="k4mgP4IrbInVGcrCNL6p-6" value="6.ระบบทำการแสดงข้อมูลของคอร์สที่ลงเรียนชดเชย&amp;nbsp;" style="edgeLabel;html=1;align=center;verticalAlign=middle;resizable=0;points=[];" connectable="0" vertex="1" parent="k4mgP4IrbInVGcrCNL6p-5">
          <mxGeometry x="0.2459" relative="1" as="geometry">
            <mxPoint y="10" as="offset" />
          </mxGeometry>
        </mxCell>
        <mxCell id="k4mgP4IrbInVGcrCNL6p-7" value="" style="endArrow=classic;html=1;rounded=0;exitX=1.025;exitY=0.15;exitDx=0;exitDy=0;exitPerimeter=0;entryX=0;entryY=1;entryDx=0;entryDy=0;" edge="1" parent="1" source="k4mgP4IrbInVGcrCNL6p-1" target="GfXseyObPwheIeoetcSY-2">
          <mxGeometry width="50" height="50" relative="1" as="geometry">
            <mxPoint x="400" y="400" as="sourcePoint" />
            <mxPoint x="450" y="350" as="targetPoint" />
          </mxGeometry>
        </mxCell>
      </root>
    </mxGraphModel>
  </diagram>
  <diagram id="kMpx9lgX3xnSJ1kbnSRR" name="uc7">
    <mxGraphModel dx="940" dy="713" grid="1" gridSize="10" guides="1" tooltips="1" connect="1" arrows="1" fold="1" page="0" pageScale="1" pageWidth="850" pageHeight="1100" math="0" shadow="0">
      <root>
        <mxCell id="0" />
        <mxCell id="1" parent="0" />
        <mxCell id="2fqMhXurE9l-wM_qmGKy-1" value="sc: studentController" style="rounded=1;whiteSpace=wrap;html=1;fillColor=#f0a30a;strokeColor=#BD7000;fontColor=#000000;" parent="1" vertex="1">
          <mxGeometry x="370" y="200" width="120" height="60" as="geometry" />
        </mxCell>
        <mxCell id="2fqMhXurE9l-wM_qmGKy-2" value="db : DBConnected" style="rounded=1;whiteSpace=wrap;html=1;fillColor=#f0a30a;strokeColor=#BD7000;fontColor=#000000;" parent="1" vertex="1">
          <mxGeometry x="630" y="380" width="120" height="60" as="geometry" />
        </mxCell>
        <mxCell id="2fqMhXurE9l-wM_qmGKy-3" value="sv: studentView" style="rounded=1;whiteSpace=wrap;html=1;fillColor=#f0a30a;strokeColor=#BD7000;fontColor=#000000;" parent="1" vertex="1">
          <mxGeometry x="370" y="550" width="120" height="60" as="geometry" />
        </mxCell>
        <mxCell id="2fqMhXurE9l-wM_qmGKy-4" value="s :Student" style="rounded=1;whiteSpace=wrap;html=1;fillColor=#f0a30a;strokeColor=#BD7000;fontColor=#000000;" parent="1" vertex="1">
          <mxGeometry x="120" y="380" width="120" height="60" as="geometry" />
        </mxCell>
        <mxCell id="C2kW3em-id0rsalyJp1m-1" value="" style="curved=1;endArrow=classic;html=1;rounded=0;entryX=0.25;entryY=1;entryDx=0;entryDy=0;exitX=0.75;exitY=1;exitDx=0;exitDy=0;" parent="1" source="2fqMhXurE9l-wM_qmGKy-2" target="2fqMhXurE9l-wM_qmGKy-2" edge="1">
          <mxGeometry width="50" height="50" relative="1" as="geometry">
            <mxPoint x="630" y="395" as="sourcePoint" />
            <mxPoint x="630" y="425" as="targetPoint" />
            <Array as="points">
              <mxPoint x="710" y="470" />
              <mxPoint x="670" y="460" />
            </Array>
          </mxGeometry>
        </mxCell>
        <mxCell id="C2kW3em-id0rsalyJp1m-3" value="1.ระบบเช็คจำนวนการเข้าเรียนว่าครบแล้ว&lt;br&gt;&lt;span id=&quot;docs-internal-guid-a887454f-7fff-6683-1252-aa28f4dafda7&quot;&gt;&lt;/span&gt;(Q7.1.1)" style="edgeLabel;html=1;align=center;verticalAlign=middle;resizable=0;points=[];" parent="C2kW3em-id0rsalyJp1m-1" connectable="0" vertex="1">
          <mxGeometry x="0.15" y="-2" relative="1" as="geometry">
            <mxPoint x="22" y="7" as="offset" />
          </mxGeometry>
        </mxCell>
        <mxCell id="C2kW3em-id0rsalyJp1m-5" value="" style="curved=1;endArrow=classic;html=1;rounded=0;exitX=0.5;exitY=0;exitDx=0;exitDy=0;entryX=1;entryY=0.5;entryDx=0;entryDy=0;" parent="1" source="2fqMhXurE9l-wM_qmGKy-2" target="2fqMhXurE9l-wM_qmGKy-1" edge="1">
          <mxGeometry width="50" height="50" relative="1" as="geometry">
            <mxPoint x="330" y="460" as="sourcePoint" />
            <mxPoint x="380" y="410" as="targetPoint" />
            <Array as="points">
              <mxPoint x="630" y="240" />
            </Array>
          </mxGeometry>
        </mxCell>
        <mxCell id="C2kW3em-id0rsalyJp1m-7" value="2.ทำการส่งใบ Certificate" style="edgeLabel;html=1;align=center;verticalAlign=middle;resizable=0;points=[];" parent="C2kW3em-id0rsalyJp1m-5" connectable="0" vertex="1">
          <mxGeometry x="0.2118" y="26" relative="1" as="geometry">
            <mxPoint as="offset" />
          </mxGeometry>
        </mxCell>
        <mxCell id="C2kW3em-id0rsalyJp1m-8" value="" style="endArrow=classic;html=1;rounded=0;exitX=0.5;exitY=1;exitDx=0;exitDy=0;entryX=0.5;entryY=0;entryDx=0;entryDy=0;" parent="1" source="2fqMhXurE9l-wM_qmGKy-1" target="2fqMhXurE9l-wM_qmGKy-3" edge="1">
          <mxGeometry width="50" height="50" relative="1" as="geometry">
            <mxPoint x="450" y="390" as="sourcePoint" />
            <mxPoint x="500" y="340" as="targetPoint" />
          </mxGeometry>
        </mxCell>
        <mxCell id="C2kW3em-id0rsalyJp1m-9" value="3.แสดงใบ Certificate" style="edgeLabel;html=1;align=center;verticalAlign=middle;resizable=0;points=[];" parent="C2kW3em-id0rsalyJp1m-8" connectable="0" vertex="1">
          <mxGeometry x="-0.1303" y="-1" relative="1" as="geometry">
            <mxPoint as="offset" />
          </mxGeometry>
        </mxCell>
        <mxCell id="C2kW3em-id0rsalyJp1m-10" value="" style="curved=1;endArrow=classic;html=1;rounded=0;exitX=0;exitY=0.5;exitDx=0;exitDy=0;entryX=0.5;entryY=1;entryDx=0;entryDy=0;" parent="1" source="2fqMhXurE9l-wM_qmGKy-3" target="2fqMhXurE9l-wM_qmGKy-4" edge="1">
          <mxGeometry width="50" height="50" relative="1" as="geometry">
            <mxPoint x="450" y="390" as="sourcePoint" />
            <mxPoint x="500" y="340" as="targetPoint" />
            <Array as="points">
              <mxPoint x="280" y="550" />
              <mxPoint x="220" y="520" />
            </Array>
          </mxGeometry>
        </mxCell>
        <mxCell id="C2kW3em-id0rsalyJp1m-11" value="4.กดรับใบ Certificate" style="edgeLabel;html=1;align=center;verticalAlign=middle;resizable=0;points=[];" parent="C2kW3em-id0rsalyJp1m-10" connectable="0" vertex="1">
          <mxGeometry x="0.1997" y="-2" relative="1" as="geometry">
            <mxPoint as="offset" />
          </mxGeometry>
        </mxCell>
      </root>
    </mxGraphModel>
  </diagram>
</mxfile>
